<?xml version="1.0" encoding="utf-8"?>
<!-- Generator: Adobe Illustrator 16.0.5, SVG Export Plug-In . SVG Version: 6.00 Build 0)  -->
<!DOCTYPE svg PUBLIC "-//W3C//DTD SVG 1.1//EN" "http://www.w3.org/Graphics/SVG/1.1/DTD/svg11.dtd">
<svg version="1.1" id="图层_1" xmlns="http://www.w3.org/2000/svg" xmlns:xlink="http://www.w3.org/1999/xlink" x="0px" y="0px"
	 width="240.556px" height="53.449px" viewBox="0 0 240.556 53.449" enable-background="new 0 0 240.556 53.449"
	 xml:space="preserve">
<g>
	<g>
		<g enable-background="new    ">
			<g>
				<polygon fill="#FAA638" points="41.729,10.273 38.619,13.099 32.454,12.658 35.564,9.833 				"/>
			</g>
			<g>
				<polygon fill="#FAA638" points="42.226,29.77 39.116,32.596 38.619,13.099 41.729,10.273 				"/>
			</g>
			<g>
				<polygon fill="#FFFFFF" points="36.054,29.053 32.944,31.879 32.454,12.658 35.564,9.833 				"/>
			</g>
			<g>
				<polygon fill="#FAA638" points="35.105,28.985 31.995,31.811 31.48,11.634 34.591,8.809 				"/>
			</g>
			<g>
				<polygon fill="#FAA638" points="21.618,8.835 18.507,11.661 12.342,11.22 15.453,8.394 				"/>
			</g>
			<g>
				<path fill="#FAA638" d="M38.823,39.071l-3.11,2.825c0.112-0.102,0.222-0.207,0.329-0.314c1.057-1.06,1.86-2.36,2.368-3.88
					c0.516-1.519,0.753-3.238,0.706-5.106l3.11-2.826c0.047,1.869-0.19,3.588-0.706,5.107c-0.508,1.52-1.311,2.82-2.368,3.879
					C39.045,38.864,38.936,38.969,38.823,39.071z"/>
			</g>
			<g>
				<path fill="#FFFFFF" d="M32.515,34.813c0.311-0.88,0.456-1.866,0.429-2.935l3.11-2.826c0.027,1.068-0.119,2.055-0.429,2.935
					c-0.318,0.889-0.786,1.654-1.384,2.282c-1.037,0.942-2.074,1.884-3.11,2.825C31.729,36.469,32.196,35.702,32.515,34.813z
					 M31.141,37.086l0.178-0.162l0.184-0.167l0.19-0.172l0.194-0.177l0.198-0.18l0.201-0.182l0.202-0.184l0.203-0.185l0.203-0.185
					l0.202-0.185l0.201-0.182l0.198-0.18l0.194-0.177l0.189-0.172l0.184-0.167l0.178-0.162l-0.178,0.162L33.878,34.6l-0.189,0.172
					l-0.194,0.177l-0.198,0.18l-0.201,0.182l-0.202,0.185l-0.203,0.185l-0.203,0.185l-0.202,0.184l-0.201,0.182l-0.198,0.18
					l-0.194,0.177l-0.19,0.172l-0.184,0.167L31.141,37.086"/>
			</g>
			<g>
				<path fill="#FAA638" d="M33.3,33.799l-3.11,2.826c0.079-0.072,0.157-0.146,0.232-0.225c0.515-0.548,0.917-1.207,1.195-1.986
					s0.402-1.647,0.378-2.603l3.11-2.826c0.024,0.956-0.099,1.824-0.378,2.604s-0.68,1.438-1.195,1.986
					C33.457,33.652,33.379,33.727,33.3,33.799z"/>
			</g>
			<g>
				<path fill="#FFFFFF" d="M30.824,37.397c0.105-0.097,0.208-0.196,0.306-0.302c1.037-0.941,2.074-1.883,3.11-2.825
					c-0.099,0.105-0.201,0.205-0.306,0.301C33.001,35.419,31.757,36.55,30.824,37.397z M34.191,34.318l-0.175,0.159l-0.181,0.165
					l-0.187,0.17l-0.191,0.174l-0.195,0.177l-0.197,0.18l-0.199,0.181l-0.201,0.182l-0.2,0.183l-0.199,0.181l-0.197,0.18
					l-0.195,0.177l-0.191,0.174l-0.187,0.17l-0.182,0.165l-0.175,0.158l0.175-0.158l0.182-0.165l0.187-0.17l0.191-0.174l0.195-0.177
					l0.197-0.18l0.199-0.181l0.2-0.183l0.201-0.182l0.199-0.181l0.197-0.18l0.195-0.177l0.191-0.174l0.187-0.17l0.181-0.165
					L34.191,34.318"/>
			</g>
			<g>
				<polygon fill="#FAA638" points="22.107,28.056 18.997,30.882 18.507,11.661 21.618,8.835 				"/>
			</g>
			<g>
				<path fill="#FAA638" d="M33.935,34.571l-3.11,2.826c-0.536,0.486-1.16,0.859-1.859,1.126c-0.841,0.317-1.805,0.438-2.776,0.368
					c-0.971-0.069-1.951-0.329-2.824-0.769c-0.874-0.434-1.64-1.021-2.281-1.745c-0.632-0.708-1.132-1.552-1.498-2.489
					c-0.365-0.928-0.562-1.939-0.589-3.007l3.11-2.826c0.027,1.068,0.224,2.079,0.589,3.007c0.365,0.938,0.865,1.781,1.498,2.488
					c0.641,0.725,1.408,1.312,2.281,1.745c0.873,0.44,1.853,0.699,2.824,0.77c0.972,0.069,1.936-0.052,2.776-0.369
					C32.774,35.432,33.399,35.058,33.935,34.571z"/>
			</g>
			<g>
				<polygon fill="#FFFFFF" points="15.95,27.891 12.839,30.716 12.342,11.22 15.453,8.394 				"/>
			</g>
			<g>
				<polygon fill="#FAA638" points="15,27.823 11.89,30.648 11.369,10.196 14.479,7.371 				"/>
			</g>
			<g>
				<path fill="#FFFFFF" d="M13.817,35.943c-0.604-1.599-0.93-3.358-0.978-5.227l3.11-2.826c0.048,1.869,0.374,3.628,0.978,5.228
					C15.891,34.06,14.854,35.002,13.817,35.943z"/>
			</g>
			<g>
				<path fill="#FFFFFF" d="M20.548,43.155c-1.641-0.753-3.041-1.756-4.156-2.979c0.054-0.049,0.125-0.113,0.179-0.162
					c0.978-0.888,1.955-1.775,2.932-2.663c1.115,1.222,2.515,2.225,4.156,2.979c0.209,0.098,0.423,0.189,0.641,0.277
					c-0.131,0.119-0.261,0.237-0.392,0.356c0.131-0.119,0.261-0.237,0.392-0.356c1.513,0.607,3.242,0.98,5.147,1.117
					c2.146,0.153,4.062-0.036,5.678-0.574c1.454-0.469,2.695-1.167,3.699-2.079l-3.11,2.825c-1.004,0.912-2.245,1.611-3.699,2.079
					c-1.616,0.538-3.532,0.728-5.678,0.574c-1.905-0.137-3.634-0.51-5.147-1.117c0.13-0.118,0.261-0.237,0.392-0.355
					c-0.131,0.118-0.262,0.237-0.392,0.355C20.971,43.346,20.757,43.253,20.548,43.155z M23.904,40.956l-0.134,0.122l-0.139,0.126
					l-0.143,0.13l-0.146,0.133l-0.149,0.136l-0.151,0.137l-0.153,0.139l-0.153,0.14l-0.153,0.139l-0.153,0.139l-0.151,0.138
					l-0.149,0.136l-0.146,0.133l-0.143,0.13l-0.139,0.126l-0.134,0.122l0.134-0.122l0.139-0.126l0.143-0.13l0.146-0.133l0.149-0.136
					l0.151-0.138l0.153-0.139l0.153-0.139l0.153-0.14l0.153-0.139l0.151-0.137l0.149-0.136l0.146-0.133l0.143-0.13l0.139-0.126
					L23.904,40.956 M19.5,37.357l-0.174,0.158l-0.18,0.163l-0.185,0.169l-0.19,0.172l-0.193,0.176l-0.196,0.179l-0.198,0.179
					l-0.199,0.181l-0.199,0.181l-0.198,0.18l-0.196,0.178L17.2,39.447l-0.19,0.173l-0.185,0.168l-0.18,0.163l-0.174,0.158
					l0.174-0.158l0.18-0.163l0.185-0.168l0.19-0.173l0.193-0.176l0.196-0.178l0.198-0.18l0.199-0.181l0.199-0.181l0.198-0.179
					l0.196-0.179l0.193-0.176l0.19-0.172l0.185-0.169l0.18-0.163L19.5,37.357"/>
			</g>
			<g>
				<path fill="#FFFFFF" d="M16.392,40.177c-1.123-1.216-1.987-2.644-2.574-4.233c1.037-0.941,2.074-1.883,3.11-2.825
					c0.587,1.589,1.451,3.018,2.575,4.233c-0.054,0.048-0.125,0.113-0.179,0.162c-0.527,0.479-1.054,0.957-1.581,1.436
					C17.293,39.358,16.842,39.768,16.392,40.177z"/>
			</g>
			<g>
				<path fill="#FAA638" d="M39.502,39.804l-3.11,2.825c-1.091,0.991-2.433,1.753-4.004,2.268c-1.735,0.563-3.761,0.771-6.027,0.609
					c-2.3-0.165-4.361-0.665-6.132-1.479c-1.779-0.824-3.292-1.913-4.503-3.237c-1.22-1.316-2.156-2.861-2.797-4.583
					c-0.632-1.713-0.987-3.578-1.038-5.559L15,27.823c0.051,1.98,0.405,3.846,1.038,5.558c0.642,1.722,1.577,3.268,2.797,4.584
					c1.211,1.324,2.725,2.413,4.504,3.236c1.77,0.814,3.832,1.314,6.131,1.479c2.266,0.162,4.292-0.045,6.027-0.608
					C37.069,41.556,38.412,40.794,39.502,39.804z"/>
			</g>
			<g>
				<path fill="#FAA638" d="M34.591,8.809l8.063,0.577l0.521,20.453c0.05,1.98-0.202,3.802-0.75,5.43
					c-0.556,1.637-1.424,3.053-2.573,4.2c-1.148,1.155-2.611,2.031-4.355,2.604c-1.735,0.563-3.761,0.771-6.027,0.608
					c-2.3-0.164-4.361-0.664-6.131-1.479c-1.779-0.823-3.292-1.912-4.504-3.236c-1.22-1.316-2.156-2.862-2.797-4.584
					c-0.632-1.712-0.987-3.578-1.038-5.558L14.479,7.371l8.063,0.577l0.514,20.177c0.024,0.956,0.201,1.854,0.521,2.667
					c0.32,0.822,0.756,1.55,1.301,2.166c0.545,0.614,1.198,1.117,1.95,1.489c0.755,0.377,1.608,0.602,2.454,0.661
					c0.839,0.061,1.67-0.041,2.386-0.315c0.719-0.266,1.34-0.678,1.864-1.216c0.515-0.548,0.917-1.207,1.195-1.986
					s0.402-1.647,0.378-2.604L34.591,8.809z M42.226,29.77l-0.497-19.497l-6.165-0.441l0.49,19.221
					c0.027,1.068-0.119,2.055-0.429,2.935c-0.318,0.888-0.786,1.654-1.384,2.282c-0.598,0.636-1.329,1.108-2.166,1.427
					c-0.841,0.317-1.805,0.438-2.776,0.369c-0.971-0.07-1.951-0.329-2.824-0.77c-0.873-0.433-1.64-1.02-2.281-1.745
					c-0.632-0.707-1.132-1.551-1.498-2.488c-0.365-0.928-0.562-1.939-0.589-3.007l-0.49-19.221l-6.165-0.441l0.497,19.497
					c0.048,1.869,0.374,3.628,0.978,5.228c0.587,1.589,1.451,3.018,2.575,4.233c1.115,1.222,2.515,2.225,4.156,2.979
					c1.659,0.772,3.608,1.238,5.788,1.394c2.146,0.154,4.062-0.035,5.678-0.573c1.617-0.521,2.971-1.327,4.027-2.395
					c1.057-1.059,1.86-2.359,2.368-3.879C42.036,33.358,42.273,31.639,42.226,29.77"/>
			</g>
			<g>
				<path fill="#FFFFFF" d="M41.729,10.273l0.497,19.497c0.047,1.869-0.19,3.588-0.706,5.107c-0.508,1.52-1.311,2.82-2.368,3.879
					c-1.057,1.067-2.41,1.873-4.027,2.395c-1.616,0.538-3.532,0.728-5.678,0.574c-2.18-0.156-4.129-0.622-5.788-1.395
					c-1.641-0.754-3.041-1.757-4.156-2.979c-1.124-1.216-1.988-2.645-2.575-4.233c-0.604-1.599-0.93-3.358-0.978-5.228L15.453,8.394
					l6.165,0.441l0.49,19.221c0.027,1.068,0.224,2.079,0.589,3.007c0.365,0.938,0.865,1.781,1.498,2.488
					c0.641,0.725,1.408,1.312,2.281,1.745c0.873,0.44,1.853,0.699,2.824,0.77c0.972,0.069,1.936-0.052,2.776-0.369
					c0.837-0.318,1.567-0.791,2.166-1.427c0.599-0.628,1.066-1.394,1.384-2.282c0.311-0.88,0.456-1.867,0.429-2.935l-0.49-19.221
					L41.729,10.273z"/>
			</g>
		</g>
	</g>
</g>
<g>
	<g>
		<g enable-background="new    ">
			<g>
				<polygon fill="#FAA638" points="68.896,16.549 65.786,19.375 69.867,15.06 72.978,12.234 				"/>
			</g>
			<g>
				<path fill="#FFFFFF" d="M65.786,19.375c-0.596-0.635-1.343-1.144-2.224-1.525c0.054-0.048,0.125-0.113,0.179-0.162
					c0.977-0.888,1.955-1.775,2.932-2.664c0.88,0.381,1.627,0.89,2.223,1.525c-0.916,0.832-1.832,1.664-2.747,2.496
					C66.04,19.144,65.895,19.275,65.786,19.375z"/>
			</g>
			<g>
				<polygon fill="#FAA638" points="68.908,18.002 65.797,20.828 65.436,20.364 68.546,17.538 				"/>
			</g>
			<g>
				<path fill="#FFFFFF" d="M57.233,17.654c-0.111,0.054-0.217,0.112-0.319,0.174c1.037-0.942,2.074-1.884,3.11-2.826
					c0.102-0.062,0.208-0.12,0.319-0.173c0.514-0.239,1.074-0.405,1.651-0.493c0.585-0.09,1.154-0.115,1.724-0.074
					c-1.037,0.941-2.073,1.884-3.11,2.825c1.037-0.941,2.074-1.884,3.11-2.825c0.954,0.068,1.911,0.32,2.954,0.761
					c-0.054,0.049-0.125,0.114-0.179,0.162c-0.527,0.479-1.054,0.958-1.581,1.436c-0.451,0.409-0.901,0.818-1.352,1.228
					c-1.042-0.44-2-0.693-2.954-0.761c-0.57-0.041-1.139-0.016-1.724,0.074C58.307,17.25,57.747,17.416,57.233,17.654z"/>
			</g>
			<g>
				<path fill="#FAA638" d="M57.042,18.971l3.11-2.826c0.189-0.172,0.409-0.315,0.657-0.432c0.439-0.209,0.921-0.355,1.415-0.432
					c0.514-0.077,1.011-0.099,1.509-0.063c0.852,0.061,1.705,0.288,2.647,0.687c0.906,0.383,1.637,0.934,2.167,1.633l-3.11,2.826
					c-0.53-0.7-1.261-1.25-2.167-1.633c-0.942-0.398-1.795-0.626-2.647-0.687c-0.498-0.036-0.995-0.015-1.509,0.063
					c-0.493,0.076-0.976,0.222-1.415,0.432C57.451,18.655,57.231,18.798,57.042,18.971z"/>
			</g>
			<g>
				<path fill="#FAA638" d="M56.363,18.238l3.11-2.826c-0.167,0.151-0.317,0.318-0.452,0.5c-0.346,0.482-0.51,1.089-0.492,1.804
					c0.029,1.137,0.479,2.055,1.358,2.728c0.775,0.605,1.762,1.14,2.917,1.61c1.129,0.441,2.345,0.907,3.628,1.359
					c1.24,0.441,2.416,1.032,3.501,1.763c1.06,0.704,1.962,1.627,2.673,2.745c0.702,1.099,1.081,2.561,1.126,4.361
					c0.044,1.723-0.233,3.216-0.834,4.444l-3.11,2.826c0.601-1.229,0.878-2.723,0.834-4.445c-0.046-1.8-0.424-3.262-1.126-4.361
					c-0.711-1.117-1.614-2.041-2.673-2.745c-1.085-0.731-2.261-1.322-3.501-1.763c-1.283-0.453-2.499-0.918-3.628-1.36
					c-1.155-0.47-2.142-1.004-2.917-1.609c-0.879-0.673-1.33-1.591-1.358-2.728c-0.019-0.714,0.146-1.322,0.491-1.804
					C56.046,18.556,56.196,18.39,56.363,18.238z"/>
			</g>
			<g>
				<path fill="#FFFFFF" d="M56.914,17.828c-0.199,0.121-0.383,0.258-0.55,0.41l3.11-2.826c0.167-0.152,0.351-0.289,0.55-0.41
					c-0.519,0.471-1.037,0.942-1.555,1.413c-0.122,0.111-0.285,0.259-0.407,0.37c-0.06,0.055-0.141,0.128-0.201,0.183
					c-0.06,0.054-0.139,0.126-0.198,0.181c-0.059,0.053-0.137,0.124-0.195,0.177c-0.112,0.103-0.262,0.239-0.375,0.341
					C57.039,17.715,56.972,17.785,56.914,17.828z"/>
			</g>
			<g>
				<path fill="#FAA638" d="M51.66,13.995c0.519-0.471,1.037-0.942,1.555-1.413s1.037-0.942,1.555-1.413
					c0.228-0.208,0.468-0.401,0.72-0.582c1.063-0.775,2.33-1.329,3.739-1.649c1.455-0.331,2.99-0.429,4.533-0.318
					c1.723,0.123,3.457,0.507,5.098,1.118c1.491,0.562,2.87,1.4,4.118,2.496l-3.11,2.826c-1.249-1.095-2.627-1.933-4.118-2.496
					c-1.642-0.611-3.375-0.995-5.098-1.119c-1.543-0.11-3.078-0.012-4.533,0.319c-1.409,0.32-2.675,0.874-3.739,1.649
					C52.128,13.594,51.888,13.788,51.66,13.995z"/>
			</g>
			<g>
				<path fill="#FFFFFF" d="M49.852,16.378c0.471-0.922,1.078-1.72,1.808-2.383c1.037-0.942,2.074-1.884,3.11-2.826
					c-0.73,0.663-1.337,1.461-1.808,2.383C51.925,14.495,50.888,15.437,49.852,16.378z"/>
			</g>
			<g>
				<path fill="#FFFFFF" d="M64.478,35.355c-0.029-1.137-0.488-2.072-1.369-2.797c1.037-0.941,2.073-1.884,3.11-2.825
					c0.88,0.725,1.34,1.66,1.369,2.796c-0.25,0.227-0.499,0.453-0.749,0.68C66.053,33.925,65.265,34.641,64.478,35.355z"/>
			</g>
			<g>
				<path fill="#FFFFFF" d="M63.109,32.559c-0.802-0.65-1.798-1.229-2.972-1.725c1.037-0.942,2.074-1.884,3.11-2.826
					c1.173,0.496,2.169,1.075,2.972,1.726C65.183,30.675,64.146,31.617,63.109,32.559z"/>
			</g>
			<g>
				<path fill="#FFFFFF" d="M60.138,30.833L60.138,30.833c0.787-0.715,1.574-1.431,2.361-2.146c0.25-0.227,0.499-0.453,0.749-0.68
					c0,0,0,0,0,0l0,0C62.211,28.95,61.175,29.892,60.138,30.833L60.138,30.833z"/>
			</g>
			<g>
				<path fill="#FFFFFF" d="M64.01,37.102c0.329-0.483,0.485-1.075,0.468-1.746c0.25-0.227,0.499-0.453,0.749-0.68
					c0.787-0.715,1.575-1.431,2.362-2.146c0.017,0.671-0.139,1.263-0.468,1.746C66.084,35.218,65.047,36.159,64.01,37.102z"/>
			</g>
			<g>
				<path fill="#FAA638" d="M71.083,39.176l-3.11,2.826c0.742-0.675,1.354-1.498,1.818-2.449l3.11-2.826
					C72.437,37.679,71.825,38.502,71.083,39.176z"/>
			</g>
			<g>
				<path fill="#FFFFFF" d="M60.137,30.833c-1.139-0.477-2.38-0.97-3.707-1.459c0.25-0.227,0.499-0.454,0.749-0.68
					c0.788-0.715,1.575-1.43,2.362-2.146c1.327,0.49,2.568,0.983,3.707,1.459c-0.25,0.227-0.499,0.454-0.749,0.68
					c-0.538,0.488-1.075,0.977-1.613,1.466C60.636,30.38,60.387,30.606,60.137,30.833z"/>
			</g>
			<g>
				<path fill="#FFFFFF" d="M63.496,37.691c0.195-0.178,0.368-0.374,0.515-0.59c1.037-0.942,2.074-1.884,3.11-2.826
					c-0.147,0.216-0.319,0.413-0.515,0.591C65.673,35.714,64.429,36.844,63.496,37.691z"/>
			</g>
			<g>
				<path fill="#FAA638" d="M66.606,34.866l-3.11,2.825c-0.22,0.2-0.47,0.375-0.746,0.523l3.11-2.825
					C66.137,35.241,66.386,35.065,66.606,34.866z"/>
			</g>
			<g>
				<path fill="#FFFFFF" d="M56.43,29.374c-1.267-0.478-2.477-1.088-3.58-1.821c1.037-0.942,2.074-1.884,3.11-2.826
					c1.103,0.732,2.313,1.343,3.58,1.821l0,0c-0.315,0.287-0.631,0.574-0.947,0.86C57.873,28.063,57.151,28.718,56.43,29.374
					L56.43,29.374z"/>
			</g>
			<g>
				<path fill="#FFFFFF" d="M67.29,42.554c-0.211,0.153-0.431,0.299-0.658,0.435c1.037-0.941,2.074-1.884,3.111-2.826
					c0.227-0.136,0.446-0.28,0.658-0.435c0.238-0.171,0.466-0.354,0.683-0.552l-3.11,2.826
					C67.756,42.198,67.528,42.383,67.29,42.554z"/>
			</g>
			<g>
				<path fill="#FFFFFF" d="M48.996,20.675c-0.042-1.662,0.245-3.103,0.855-4.297c1.037-0.942,2.073-1.884,3.11-2.826
					c-0.61,1.194-0.897,2.635-0.855,4.297c0.043,1.706,0.42,3.108,1.139,4.173c-1.037,0.942-2.073,1.884-3.11,2.826l0,0
					C49.417,23.783,49.04,22.381,48.996,20.675z"/>
			</g>
			<g>
				<path fill="#FFFFFF" d="M50.135,24.849c0.067-0.046,0.119-0.108,0.179-0.162c0.062-0.056,0.123-0.112,0.185-0.168
					c0.917-0.831,1.832-1.664,2.747-2.495c0.728,1.083,1.639,1.999,2.715,2.704c-1.037,0.942-2.073,1.884-3.11,2.826
					C51.774,26.848,50.863,25.933,50.135,24.849L50.135,24.849z"/>
			</g>
			<g>
				<path fill="#FAA638" d="M65.948,34.115l-3.11,2.825c0.141-0.128,0.265-0.27,0.373-0.429c0.23-0.337,0.331-0.742,0.319-1.225
					c-0.021-0.826-0.337-1.485-0.973-2.003c-0.714-0.584-1.633-1.114-2.711-1.569c-1.122-0.476-2.354-0.959-3.665-1.448
					c-1.344-0.5-2.624-1.15-3.796-1.922c-1.198-0.791-2.214-1.809-3.021-3.018c-0.826-1.237-1.267-2.825-1.315-4.719
					c-0.046-1.817,0.271-3.41,0.955-4.736c0.516-1.008,1.185-1.89,1.991-2.623l3.11-2.826c-0.807,0.733-1.476,1.615-1.991,2.623
					c-0.683,1.327-1.001,2.919-0.955,4.737c0.048,1.895,0.49,3.481,1.315,4.719c0.807,1.209,1.823,2.228,3.021,3.018
					c1.172,0.772,2.452,1.422,3.796,1.922c1.31,0.489,2.543,0.973,3.665,1.448c1.079,0.456,1.997,0.985,2.711,1.569
					c0.636,0.518,0.952,1.177,0.973,2.003c0.012,0.482-0.088,0.888-0.319,1.224C66.212,33.845,66.088,33.987,65.948,34.115z"/>
			</g>
			<g>
				<path fill="#FAA638" d="M65.86,35.39l-3.11,2.825c-0.506,0.256-1.081,0.438-1.71,0.548c-0.632,0.101-1.26,0.127-1.882,0.083
					c-1.251-0.09-2.475-0.468-3.649-1.115c-1.013-0.554-1.894-1.277-2.625-2.155l3.11-2.826c0.731,0.877,1.611,1.602,2.625,2.156
					c1.174,0.647,2.398,1.024,3.649,1.114c0.622,0.045,1.25,0.018,1.882-0.083C64.779,35.828,65.354,35.646,65.86,35.39z"/>
			</g>
			<g>
				<path fill="#FFFFFF" d="M53.213,43.129c-1.604-0.683-3.141-1.703-4.575-3.027l3.11-2.825c1.434,1.323,2.97,2.345,4.575,3.026
					c0.244,0.104,0.491,0.202,0.741,0.294c-0.145,0.132-0.289,0.263-0.433,0.394c0.145-0.131,0.289-0.262,0.433-0.394
					c1.546,0.571,3.209,0.926,4.96,1.052c1.616,0.115,3.176,0.011,4.619-0.298c1.143-0.242,2.183-0.641,3.099-1.188
					c-1.037,0.942-2.074,1.885-3.111,2.826c-0.916,0.548-1.956,0.946-3.099,1.188c-1.443,0.31-3.002,0.413-4.619,0.298
					c-1.752-0.125-3.415-0.479-4.96-1.051c0.007-0.007,0.017-0.017,0.024-0.022c0.136-0.124,0.272-0.248,0.409-0.371
					c-0.008,0.007-0.018,0.016-0.025,0.022c-0.073,0.066-0.147,0.134-0.22,0.2c-0.062,0.057-0.125,0.113-0.188,0.171
					C53.704,43.33,53.457,43.232,53.213,43.129z M56.63,40.987l-0.13,0.118l-0.134,0.121l-0.138,0.126l-0.142,0.128l-0.144,0.131
					l-0.146,0.133l-0.147,0.134l-0.148,0.135l-0.148,0.135l-0.147,0.134l-0.146,0.133l-0.144,0.131l-0.141,0.129l-0.138,0.125
					l-0.134,0.122l-0.129,0.117l0.129-0.117l0.134-0.122l0.138-0.125l0.141-0.129l0.144-0.131l0.146-0.133l0.147-0.134l0.148-0.135
					l0.148-0.135l0.147-0.134l0.146-0.133l0.144-0.131l0.142-0.128l0.138-0.126l0.134-0.121L56.63,40.987"/>
			</g>
			<g>
				<polygon fill="#FFFFFF" points="51.749,37.276 48.638,40.102 52.884,35.575 55.994,32.75 				"/>
			</g>
			<g>
				<path fill="#FAA638" d="M70.411,24.394c1.181,0.79,2.189,1.824,2.98,3.067c0.809,1.261,1.243,2.899,1.293,4.889
					c0.048,1.868-0.261,3.505-0.925,4.867c-0.657,1.355-1.593,2.474-2.758,3.311c-1.156,0.838-2.532,1.435-4.078,1.763
					c-1.527,0.329-3.164,0.437-4.874,0.313c-2.146-0.153-4.172-0.634-6.028-1.42c-1.864-0.795-3.627-2.004-5.255-3.59l-0.359-0.353
					l5.609-5.968l0.354,0.489c0.699,0.96,1.589,1.738,2.636,2.312c1.043,0.573,2.119,0.907,3.222,0.986
					c0.554,0.04,1.115,0.016,1.683-0.076c0.536-0.082,1.027-0.245,1.448-0.464c0.404-0.211,0.722-0.481,0.96-0.834
					c0.23-0.336,0.331-0.741,0.319-1.224c-0.021-0.827-0.337-1.485-0.973-2.003c-0.714-0.584-1.633-1.114-2.711-1.569
					c-1.122-0.476-2.354-0.959-3.665-1.448c-1.344-0.5-2.624-1.15-3.796-1.922c-1.198-0.79-2.214-1.809-3.021-3.018
					c-0.826-1.237-1.267-2.824-1.315-4.719c-0.046-1.817,0.271-3.41,0.955-4.737c0.675-1.319,1.611-2.421,2.776-3.257
					c1.156-0.837,2.524-1.435,4.052-1.782c1.54-0.354,3.167-0.461,4.802-0.344c1.815,0.13,3.64,0.535,5.367,1.183
					c1.775,0.668,3.406,1.696,4.85,3.062l0.367,0.345l-5.418,5.75l-0.362-0.464c-0.53-0.699-1.261-1.25-2.167-1.633
					c-0.942-0.399-1.795-0.626-2.647-0.687c-0.498-0.036-0.995-0.014-1.509,0.063c-0.493,0.076-0.976,0.222-1.415,0.432
					c-0.413,0.194-0.748,0.462-0.995,0.814c-0.239,0.327-0.348,0.74-0.335,1.257c0.021,0.818,0.327,1.45,0.937,1.924
					c0.705,0.54,1.597,1.025,2.666,1.454c1.112,0.44,2.318,0.896,3.593,1.349C67.993,22.983,69.247,23.614,70.411,24.394z
					 M72.901,36.727c0.601-1.229,0.878-2.722,0.834-4.444c-0.045-1.8-0.424-3.263-1.126-4.361c-0.711-1.117-1.614-2.041-2.673-2.745
					c-1.085-0.731-2.261-1.322-3.501-1.763c-1.283-0.453-2.499-0.918-3.628-1.359c-1.156-0.47-2.143-1.004-2.917-1.61
					c-0.879-0.673-1.33-1.591-1.358-2.728c-0.019-0.714,0.146-1.322,0.492-1.804c0.338-0.458,0.781-0.821,1.321-1.083
					c0.514-0.238,1.074-0.404,1.651-0.492c0.585-0.09,1.154-0.115,1.724-0.074c0.954,0.068,1.911,0.32,2.954,0.761
					c0.88,0.381,1.627,0.89,2.223,1.525l4.082-4.315c-1.249-1.095-2.627-1.933-4.118-2.496c-1.642-0.611-3.375-0.995-5.098-1.118
					c-1.543-0.11-3.078-0.012-4.533,0.318c-1.409,0.32-2.675,0.874-3.739,1.649c-1.057,0.758-1.91,1.754-2.528,2.965
					c-0.61,1.194-0.897,2.635-0.855,4.297c0.044,1.706,0.421,3.108,1.139,4.173c0.728,1.083,1.639,2,2.715,2.704
					c1.103,0.732,2.313,1.343,3.58,1.821c1.327,0.49,2.569,0.983,3.708,1.46c1.173,0.496,2.169,1.075,2.972,1.726
					c0.88,0.725,1.34,1.66,1.369,2.796c0.017,0.671-0.139,1.263-0.468,1.746c-0.313,0.459-0.739,0.833-1.261,1.114
					c-0.505,0.256-1.081,0.438-1.71,0.547c-0.632,0.101-1.26,0.128-1.882,0.083c-1.251-0.09-2.475-0.467-3.649-1.114
					c-1.013-0.554-1.894-1.278-2.625-2.156l-4.246,4.527c1.434,1.323,2.97,2.345,4.575,3.026c1.752,0.745,3.667,1.199,5.702,1.346
					c1.616,0.115,3.176,0.011,4.619-0.298c1.426-0.302,2.693-0.848,3.757-1.623C71.457,38.971,72.301,37.956,72.901,36.727"/>
			</g>
			<g>
				<path fill="#FFFFFF" d="M63.761,8.62c1.723,0.123,3.457,0.507,5.098,1.118c1.491,0.562,2.87,1.4,4.118,2.496l-4.082,4.315
					c-0.596-0.635-1.343-1.144-2.223-1.525c-1.043-0.44-2-0.693-2.954-0.761c-0.57-0.041-1.139-0.017-1.724,0.074
					c-0.578,0.088-1.137,0.254-1.651,0.493c-0.54,0.262-0.983,0.626-1.321,1.083c-0.346,0.482-0.51,1.089-0.492,1.804
					c0.029,1.137,0.479,2.055,1.358,2.728c0.775,0.605,1.762,1.14,2.917,1.61c1.129,0.441,2.345,0.907,3.628,1.359
					c1.24,0.441,2.416,1.032,3.501,1.763c1.06,0.704,1.962,1.627,2.673,2.745c0.702,1.099,1.081,2.561,1.127,4.361
					c0.043,1.723-0.234,3.216-0.834,4.444c-0.6,1.229-1.445,2.244-2.501,3.001c-1.064,0.775-2.331,1.321-3.757,1.623
					c-1.443,0.309-3.002,0.413-4.619,0.298c-2.035-0.146-3.95-0.601-5.702-1.346c-1.604-0.682-3.141-1.703-4.575-3.026l4.246-4.527
					c0.731,0.877,1.611,1.602,2.625,2.156c1.174,0.647,2.398,1.024,3.649,1.114c0.622,0.045,1.25,0.018,1.882-0.083
					c0.629-0.108,1.205-0.291,1.71-0.547c0.522-0.281,0.948-0.655,1.261-1.114c0.329-0.483,0.485-1.074,0.468-1.746
					c-0.029-1.137-0.488-2.072-1.369-2.796c-0.802-0.651-1.798-1.229-2.972-1.726c-1.139-0.477-2.381-0.97-3.708-1.46
					c-1.267-0.478-2.477-1.088-3.58-1.821c-1.076-0.705-1.987-1.621-2.715-2.704c-0.718-1.065-1.095-2.468-1.139-4.173
					c-0.042-1.662,0.245-3.103,0.855-4.297c0.618-1.21,1.471-2.207,2.528-2.965c1.063-0.775,2.33-1.329,3.739-1.649
					C60.683,8.608,62.218,8.51,63.761,8.62z"/>
			</g>
			<g>
				<path fill="#FAA638" d="M71.757,39.916c-1.037,0.941-2.073,1.884-3.11,2.825c-0.24,0.218-0.492,0.422-0.756,0.611
					c-1.156,0.838-2.532,1.436-4.078,1.764c-1.527,0.329-3.164,0.436-4.874,0.313c-2.146-0.153-4.172-0.635-6.028-1.42
					c-1.864-0.796-3.627-2.005-5.255-3.591l3.11-2.825c1.628,1.586,3.391,2.795,5.255,3.59c1.855,0.786,3.882,1.267,6.028,1.42
					c1.71,0.123,3.347,0.016,4.874-0.313c1.545-0.328,2.921-0.925,4.078-1.763C71.265,40.338,71.517,40.134,71.757,39.916z"/>
			</g>
			<g>
				<polygon fill="#FAA638" points="50.767,37.594 47.656,40.419 47.297,40.066 50.407,37.241 				"/>
			</g>
			<g>
				<polygon fill="#FAA638" points="50.407,37.241 47.297,40.066 52.906,34.099 56.017,31.273 				"/>
			</g>
		</g>
	</g>
</g>
<g>
	<g>
		<g enable-background="new    ">
			<g>
				<polygon fill="#FAA638" points="107.864,16.243 104.754,19.068 104.617,13.686 107.727,10.86 				"/>
			</g>
			<g>
				<polygon fill="#FFFFFF" points="107.864,16.243 104.754,19.068 95.536,18.409 98.646,15.583 				"/>
			</g>
			<g>
				<polygon fill="#FAA638" points="108.837,17.267 105.727,20.092 96.518,19.434 99.628,16.608 				"/>
			</g>
			<g>
				<polygon fill="#FAA638" points="107.727,10.86 104.617,13.686 80.024,11.927 83.135,9.102 				"/>
			</g>
			<g>
				<polygon fill="#FFFFFF" points="92.49,15.143 89.379,17.969 80.162,17.31 83.272,14.484 				"/>
			</g>
			<g>
				<polygon fill="#FFFFFF" points="83.272,14.484 80.162,17.31 80.024,11.927 83.135,9.102 				"/>
			</g>
			<g>
				<polygon fill="#FAA638" points="82.347,15.372 79.237,18.198 79.051,10.904 82.162,8.078 				"/>
			</g>
			<g>
				<polygon fill="#FFFFFF" points="93.157,41.322 90.047,44.147 89.379,17.969 92.49,15.143 				"/>
			</g>
			<g>
				<polygon fill="#FAA638" points="91.557,16.031 88.446,18.856 79.237,18.198 82.347,15.372 				"/>
			</g>
			<g>
				<polygon fill="#FAA638" points="99.313,41.763 96.203,44.588 95.536,18.409 98.646,15.583 				"/>
			</g>
			<g>
				<polygon fill="#FFFFFF" points="99.313,41.763 96.203,44.588 90.047,44.147 93.157,41.322 				"/>
			</g>
			<g>
				<polygon fill="#FFFFFF" points="107.727,10.86 107.864,16.243 98.646,15.583 99.313,41.763 93.157,41.322 92.49,15.143 
					83.272,14.484 83.135,9.102 				"/>
			</g>
			<g>
				<polygon fill="#FAA638" points="92.224,42.21 89.113,45.035 88.446,18.856 91.557,16.031 				"/>
			</g>
			<g>
				<polygon fill="#FAA638" points="100.296,42.787 97.185,45.612 89.113,45.035 92.224,42.21 				"/>
			</g>
			<g>
				<path fill="#FAA638" d="M82.162,8.078l26.49,1.895l0.186,7.294l-9.209-0.659l0.667,26.179l-8.072-0.577l-0.667-26.179
					l-9.209-0.659L82.162,8.078z M107.864,16.243l-0.137-5.382L83.135,9.102l0.137,5.382l9.218,0.659l0.667,26.179l6.156,0.44
					l-0.667-26.179L107.864,16.243"/>
			</g>
		</g>
	</g>
</g>
<g>
	<g>
		<g enable-background="new    ">
			<g>
				<path fill="#FAA638" d="M142.795,14.322l-3.11,2.826c-0.616-0.74-1.29-1.39-2.021-1.933c-0.861-0.655-1.763-1.192-2.695-1.611
					s-1.888-0.745-2.851-0.977c-0.961-0.232-1.896-0.385-2.776-0.448c-2.454-0.175-4.735,0.057-6.777,0.676
					c-2.041,0.627-3.817,1.609-5.276,2.94l3.11-2.826c1.459-1.331,3.235-2.312,5.276-2.94c2.042-0.62,4.323-0.852,6.777-0.676
					c0.881,0.063,1.815,0.216,2.777,0.448s1.917,0.558,2.85,0.978c0.933,0.418,1.834,0.956,2.695,1.611
					C141.505,12.932,142.179,13.581,142.795,14.322z"/>
			</g>
			<g>
				<polygon fill="#FFFFFF" points="142.795,14.322 139.685,17.147 135.039,20.709 138.149,17.883 				"/>
			</g>
			<g>
				<polygon fill="#FAA638" points="144.133,14.555 141.022,17.38 134.944,22.034 138.055,19.208 				"/>
			</g>
			<g>
				<polygon fill="#FAA638" points="138.055,19.208 134.944,22.034 134.636,21.643 137.746,18.817 				"/>
			</g>
			<g>
				<path fill="#FFFFFF" d="M126.43,17.905c-0.524,0.096-1.03,0.239-1.515,0.429c1.037-0.942,2.074-1.884,3.11-2.826
					c0.485-0.19,0.991-0.333,1.515-0.429c-0.425,0.386-0.849,0.771-1.274,1.157c0.425-0.386,0.849-0.771,1.274-1.157
					c0.756-0.138,1.549-0.177,2.373-0.118c1.197,0.086,2.292,0.339,3.26,0.765c-0.151,0.138-0.303,0.275-0.455,0.413
					c0.152-0.138,0.304-0.275,0.455-0.413c0.166,0.073,0.328,0.151,0.486,0.234c0.951,0.489,1.779,1.132,2.49,1.923l-3.11,2.826
					c-0.712-0.791-1.539-1.434-2.49-1.923c-0.158-0.083-0.32-0.161-0.486-0.234c0.152-0.137,0.303-0.275,0.455-0.413
					c-0.152,0.138-0.303,0.276-0.455,0.413c-0.968-0.425-2.063-0.679-3.261-0.765C127.979,17.729,127.185,17.768,126.43,17.905
					c0.425-0.386,0.85-0.771,1.274-1.157c-0.212,0.193-0.425,0.386-0.637,0.579c-0.188,0.171-0.376,0.341-0.563,0.512
					C126.481,17.859,126.456,17.892,126.43,17.905z M138.071,17.867l-0.173,0.157l-0.179,0.163l-0.185,0.167l-0.188,0.171
					l-0.192,0.175l-0.195,0.177l-0.197,0.179l-0.197,0.18l-0.198,0.179l-0.196,0.179l-0.195,0.177l-0.192,0.174l-0.189,0.171
					l-0.184,0.167l-0.179,0.163l-0.173,0.157l0.173-0.157l0.179-0.163l0.184-0.167l0.189-0.171l0.192-0.174l0.195-0.177l0.196-0.179
					l0.198-0.179l0.197-0.18l0.197-0.179l0.195-0.177l0.192-0.175l0.188-0.171l0.185-0.167l0.179-0.163L138.071,17.867
					 M132.519,18.155l0.127-0.115l0.131-0.119l0.135-0.123l0.138-0.125l0.141-0.128l0.143-0.129l0.144-0.131l0.145-0.131
					l0.145-0.132l0.144-0.13l0.143-0.129l0.141-0.128l0.138-0.125l0.135-0.123l0.131-0.119l0.126-0.115l-0.126,0.115l-0.131,0.119
					l-0.135,0.123l-0.138,0.125l-0.141,0.128l-0.143,0.129l-0.144,0.13l-0.145,0.132l-0.145,0.131l-0.144,0.131l-0.143,0.129
					l-0.141,0.128l-0.138,0.125l-0.135,0.123l-0.131,0.119L132.519,18.155 M128.262,16.224l-0.033,0.03l-0.034,0.031l-0.036,0.032
					l-0.036,0.033l-0.037,0.034l-0.038,0.034l-0.038,0.035l-0.038,0.034l-0.038,0.035l-0.038,0.035l-0.038,0.034l-0.037,0.033
					l-0.036,0.033l-0.036,0.032l-0.034,0.031l-0.034,0.03l0.034-0.03l0.034-0.031l0.036-0.032l0.036-0.033l0.037-0.033l0.038-0.034
					l0.038-0.035l0.038-0.035l0.038-0.034l0.038-0.035l0.038-0.034l0.037-0.034l0.036-0.033l0.036-0.032l0.034-0.031L128.262,16.224
					"/>
			</g>
			<g>
				<path fill="#FFFFFF" d="M124.915,18.334c-0.963,0.372-1.826,0.905-2.571,1.582l3.111-2.826c0.745-0.677,1.608-1.21,2.571-1.582
					c-0.518,0.471-1.037,0.942-1.555,1.413c-0.122,0.111-0.285,0.259-0.407,0.37c-0.12,0.109-0.28,0.254-0.4,0.363
					c-0.116,0.105-0.27,0.245-0.385,0.35C125.169,18.104,125.041,18.257,124.915,18.334z"/>
			</g>
			<g>
				<path fill="#FAA638" d="M123.014,20.66l3.11-2.826c0.672-0.61,1.45-1.09,2.317-1.427c1.057-0.414,2.239-0.579,3.496-0.489
					c1.266,0.09,2.4,0.387,3.36,0.885c0.96,0.499,1.78,1.176,2.45,2.015l-3.11,2.825c-0.67-0.839-1.489-1.516-2.45-2.015
					c-0.96-0.498-2.094-0.794-3.36-0.885c-1.257-0.09-2.439,0.075-3.496,0.489C124.464,19.569,123.686,20.049,123.014,20.66z"/>
			</g>
			<g>
				<polygon fill="#FAA638" points="138.399,33.056 135.289,35.881 135.561,35.488 138.671,32.662 				"/>
			</g>
			<g>
				<polygon fill="#FAA638" points="144.183,38.283 141.072,41.109 135.817,36.864 138.928,34.039 				"/>
			</g>
			<g>
				<path fill="#FAA638" d="M142.929,39.64c-1.037,0.942-2.074,1.884-3.11,2.826c0.45-0.409,0.869-0.862,1.254-1.356l3.111-2.826
					C143.797,38.778,143.379,39.23,142.929,39.64z"/>
			</g>
			<g>
				<path fill="#FAA638" d="M137.35,34.281l-3.111,2.826c0.392-0.356,0.742-0.765,1.05-1.226l3.11-2.825
					C138.091,33.516,137.741,33.925,137.35,34.281z"/>
			</g>
			<g>
				<path fill="#FFFFFF" d="M134.913,37.849c0.327-0.297,0.629-0.626,0.905-0.984l3.11-2.826c-0.276,0.359-0.578,0.688-0.905,0.985
					C137.09,35.871,135.846,37.001,134.913,37.849z"/>
			</g>
			<g>
				<path fill="#FFFFFF" d="M139.818,42.466c-0.979,0.89-2.108,1.573-3.371,2.042c1.037-0.941,2.074-1.884,3.111-2.825
					c1.262-0.469,2.391-1.153,3.371-2.043C141.996,40.487,140.751,41.618,139.818,42.466z"/>
			</g>
			<g>
				<path fill="#FAA638" d="M138.023,35.023l-3.11,2.825c-0.505,0.459-1.071,0.843-1.695,1.142c-1.181,0.562-2.549,0.79-4.08,0.681
					c-1.342-0.097-2.624-0.463-3.8-1.098c-1.177-0.626-2.223-1.474-3.112-2.518c-0.879-1.034-1.593-2.245-2.114-3.598
					c-0.521-1.353-0.806-2.843-0.847-4.428c-0.04-1.55,0.171-2.996,0.625-4.288c0.454-1.3,1.117-2.421,1.963-3.341
					c0.158-0.169,0.321-0.331,0.491-0.485l3.111-2.826c-0.17,0.154-0.334,0.316-0.491,0.485c-0.847,0.919-1.51,2.041-1.963,3.341
					c-0.454,1.292-0.665,2.738-0.625,4.288c0.041,1.584,0.326,3.075,0.847,4.427c0.521,1.353,1.235,2.564,2.114,3.598
					c0.889,1.043,1.935,1.892,3.112,2.518c1.177,0.634,2.458,1.001,3.801,1.097c1.53,0.109,2.898-0.119,4.079-0.68
					C136.952,35.865,137.518,35.482,138.023,35.023z"/>
			</g>
			<g>
				<path fill="#FFFFFF" d="M123.352,43.744c-2.08-0.914-3.904-2.162-5.446-3.708c0.853-0.774,1.705-1.549,2.557-2.322
					c0.185-0.168,0.369-0.336,0.553-0.503c0,0,0,0,0.001,0c-1.031,0.938-2.062,1.874-3.094,2.811
					c1.031-0.937,2.062-1.873,3.094-2.811l0,0c1.541,1.546,3.365,2.793,5.445,3.708c2.081,0.913,4.382,1.474,6.836,1.648
					c2.146,0.153,4.255-0.143,6.259-0.885c-1.037,0.941-2.074,1.884-3.111,2.825c-2.003,0.742-4.112,1.039-6.259,0.886
					C127.734,45.218,125.433,44.658,123.352,43.744z M139.505,41.719l-0.176,0.16l-0.182,0.166l-0.188,0.17l-0.192,0.175
					l-0.196,0.178l-0.198,0.181l-0.201,0.182l-0.201,0.183l-0.201,0.183l-0.2,0.182l-0.198,0.181l-0.196,0.178l-0.192,0.175
					l-0.188,0.171l-0.182,0.165l-0.176,0.16l0.176-0.16l0.182-0.165l0.188-0.171l0.192-0.175l0.196-0.178l0.198-0.181l0.2-0.182
					l0.201-0.183l0.201-0.183l0.201-0.182l0.198-0.181l0.196-0.178l0.192-0.175l0.188-0.17l0.182-0.166L139.505,41.719"/>
			</g>
			<g>
				<path fill="#FFFFFF" d="M132.452,9.353c0.881,0.063,1.815,0.216,2.777,0.448s1.917,0.558,2.85,0.978
					c0.933,0.418,1.834,0.956,2.695,1.611c0.731,0.542,1.404,1.192,2.021,1.933l-4.646,3.562c-0.711-0.791-1.539-1.434-2.49-1.923
					c-1.082-0.568-2.344-0.898-3.747-0.999c-1.394-0.1-2.704,0.082-3.887,0.547c-1.183,0.457-2.215,1.157-3.062,2.067
					c-0.847,0.919-1.51,2.041-1.963,3.341c-0.454,1.292-0.665,2.738-0.625,4.288c0.041,1.584,0.326,3.075,0.847,4.427
					c0.521,1.353,1.235,2.564,2.114,3.598c0.889,1.043,1.935,1.892,3.112,2.518c1.177,0.634,2.458,1.001,3.801,1.097
					c1.53,0.109,2.898-0.119,4.079-0.68c1.029-0.493,1.898-1.214,2.6-2.126l5.255,4.245c-1.223,1.571-2.782,2.715-4.625,3.399
					c-2.004,0.742-4.113,1.038-6.259,0.885c-2.454-0.175-4.756-0.735-6.836-1.648c-2.08-0.915-3.904-2.163-5.446-3.708
					c-1.524-1.536-2.758-3.378-3.647-5.479c-0.89-2.109-1.368-4.456-1.433-6.988c-0.064-2.522,0.295-4.81,1.081-6.799
					c0.786-1.981,1.93-3.653,3.381-4.977c1.459-1.331,3.235-2.312,5.276-2.94C127.717,9.409,129.998,9.177,132.452,9.353z"/>
			</g>
			<g>
				<path fill="#FFFFFF" d="M113.907,20.771c0.786-1.981,1.93-3.653,3.381-4.976l3.11-2.826c-1.452,1.323-2.596,2.995-3.381,4.977
					c-0.786,1.989-1.146,4.276-1.081,6.799c0.064,2.532,0.542,4.878,1.433,6.988c0.89,2.101,2.123,3.943,3.647,5.479
					c-0.053,0.048-0.125,0.113-0.178,0.162c-0.527,0.479-1.054,0.957-1.581,1.436c-0.451,0.409-0.901,0.818-1.352,1.228
					c-1.524-1.536-2.758-3.378-3.647-5.479c-0.89-2.109-1.368-4.456-1.433-6.988C112.762,25.047,113.122,22.76,113.907,20.771z"/>
			</g>
			<g>
				<path fill="#FAA638" d="M143.614,40.366l-3.11,2.825c-1.062,0.965-2.287,1.705-3.658,2.214c-2.122,0.794-4.35,1.107-6.633,0.944
					c-2.565-0.184-4.979-0.77-7.17-1.734c-2.202-0.974-4.139-2.29-5.768-3.928c-1.63-1.639-2.935-3.605-3.879-5.83
					c-0.944-2.226-1.451-4.694-1.519-7.355c-0.067-2.652,0.314-5.057,1.149-7.155s2.043-3.885,3.595-5.296l3.11-2.826
					c-1.552,1.411-2.761,3.198-3.595,5.296s-1.216,4.503-1.149,7.156c0.068,2.661,0.574,5.13,1.519,7.354
					c0.945,2.225,2.249,4.192,3.879,5.831c1.629,1.638,3.566,2.954,5.768,3.928c2.192,0.964,4.605,1.55,7.17,1.733
					c2.284,0.163,4.512-0.15,6.633-0.944C141.328,42.071,142.553,41.33,143.614,40.366z"/>
			</g>
			<g>
				<path fill="#FAA638" d="M138.671,32.662l6.833,5.518l-0.264,0.359c-1.36,1.889-3.144,3.248-5.283,4.04
					c-2.122,0.794-4.35,1.107-6.633,0.944c-2.565-0.184-4.979-0.77-7.17-1.733c-2.202-0.974-4.139-2.29-5.768-3.928
					c-1.63-1.639-2.934-3.606-3.879-5.831c-0.944-2.225-1.451-4.693-1.519-7.354c-0.067-2.652,0.314-5.058,1.149-7.156
					s2.043-3.885,3.595-5.296c1.551-1.411,3.428-2.454,5.588-3.116c2.151-0.654,4.543-0.896,7.108-0.713
					c0.932,0.067,1.917,0.224,2.939,0.468c1.022,0.245,2.038,0.602,3.031,1.042c0.993,0.449,1.972,1.035,2.895,1.728
					c0.931,0.703,1.789,1.555,2.54,2.528l0.3,0.391l-6.078,4.654l-0.309-0.391c-0.67-0.839-1.489-1.517-2.45-2.015
					c-0.96-0.498-2.094-0.794-3.36-0.885c-1.257-0.09-2.439,0.075-3.496,0.489c-1.064,0.414-1.996,1.043-2.76,1.866
					c-0.765,0.822-1.37,1.845-1.783,3.036c-0.422,1.199-0.61,2.526-0.573,3.964c0.038,1.473,0.294,2.849,0.778,4.087
					c0.476,1.246,1.127,2.35,1.927,3.293c0.801,0.934,1.734,1.696,2.798,2.262c1.047,0.557,2.19,0.888,3.396,0.974
					c1.368,0.099,2.592-0.107,3.629-0.6c1.037-0.502,1.888-1.25,2.546-2.233L138.671,32.662z M139.558,41.683
					c1.843-0.685,3.402-1.828,4.625-3.399l-5.255-4.245c-0.702,0.913-1.571,1.633-2.6,2.126c-1.181,0.561-2.549,0.789-4.079,0.68
					c-1.343-0.096-2.624-0.463-3.801-1.097c-1.177-0.626-2.223-1.475-3.112-2.518c-0.879-1.034-1.593-2.245-2.114-3.598
					c-0.521-1.353-0.806-2.843-0.847-4.427c-0.04-1.55,0.171-2.997,0.625-4.288c0.453-1.3,1.116-2.421,1.963-3.341
					c0.847-0.91,1.879-1.61,3.062-2.067c1.184-0.465,2.493-0.647,3.887-0.547c1.402,0.101,2.665,0.431,3.747,0.999
					c0.951,0.489,1.779,1.132,2.49,1.923l4.646-3.562c-0.616-0.741-1.29-1.39-2.021-1.933c-0.861-0.655-1.763-1.192-2.695-1.611
					c-0.933-0.419-1.888-0.746-2.85-0.978s-1.896-0.385-2.777-0.448c-2.454-0.175-4.735,0.057-6.777,0.676
					c-2.041,0.627-3.817,1.609-5.276,2.94c-1.452,1.323-2.596,2.995-3.381,4.977c-0.786,1.989-1.146,4.276-1.081,6.799
					c0.064,2.532,0.542,4.878,1.433,6.988c0.89,2.101,2.123,3.943,3.647,5.479c1.542,1.545,3.366,2.793,5.446,3.708
					c2.081,0.913,4.382,1.474,6.836,1.648C135.445,42.721,137.554,42.425,139.558,41.683"/>
			</g>
		</g>
	</g>
</g>
<g>
	<g>
		<g enable-background="new    ">
			<g>
				<polygon fill="#FAA638" points="227.158,10.358 224.048,13.184 217.883,12.743 220.994,9.917 				"/>
			</g>
			<g>
				<polygon fill="#FAA638" points="227.698,31.517 224.587,34.342 224.048,13.184 227.158,10.358 				"/>
			</g>
			<g>
				<polygon fill="#FFFFFF" points="221.513,30.292 218.402,33.118 217.883,12.743 220.994,9.917 				"/>
			</g>
			<g>
				<polygon fill="#FAA638" points="220.564,30.224 217.453,33.05 216.91,11.719 220.02,8.894 				"/>
			</g>
			<g>
				<path fill="#FFFFFF" d="M218.385,35.137c0.033-0.72,0.033-1.399,0.017-2.019l3.11-2.826c0.016,0.62,0.016,1.299-0.017,2.019
					c-0.023,0.755-0.15,1.459-0.356,2.099c-1.037,0.941-2.074,1.884-3.111,2.825C218.235,36.596,218.362,35.891,218.385,35.137z
					 M221.078,34.456l-0.173,0.158l-0.18,0.163l-0.185,0.168l-0.189,0.172l-0.193,0.175l-0.196,0.178l-0.197,0.18l-0.198,0.18
					l-0.198,0.181l-0.197,0.179l-0.195,0.178l-0.193,0.176l-0.189,0.172l-0.185,0.168l-0.18,0.163l-0.173,0.157l0.173-0.157
					l0.18-0.163l0.185-0.168l0.189-0.172l0.193-0.176l0.195-0.178l0.197-0.179l0.198-0.181l0.198-0.18l0.197-0.18l0.196-0.178
					l0.193-0.175l0.189-0.172l0.185-0.168l0.18-0.163L221.078,34.456"/>
			</g>
			<g>
				<path fill="#FAA638" d="M225.247,40.217l-3.11,2.826c0.332-0.302,0.62-0.633,0.863-0.992c0.667-0.975,1.106-2.146,1.32-3.465
					c0.213-1.359,0.305-2.788,0.268-4.244l3.11-2.826c0.037,1.455-0.054,2.885-0.268,4.244c-0.213,1.317-0.653,2.489-1.32,3.465
					C225.867,39.585,225.579,39.916,225.247,40.217z"/>
			</g>
			<g>
				<path fill="#FAA638" d="M219.465,35.245l-3.11,2.826c0.355-0.323,0.605-0.723,0.768-1.22c0.183-0.555,0.286-1.175,0.312-1.844
					c0.034-0.693,0.034-1.355,0.019-1.958l3.111-2.826c0.015,0.603,0.015,1.265-0.019,1.958c-0.025,0.669-0.129,1.289-0.311,1.844
					C220.07,34.522,219.821,34.923,219.465,35.245z"/>
			</g>
			<g>
				<path fill="#FFFFFF" d="M217.016,38.822c0.461-0.419,0.803-0.952,1.013-1.588c1.037-0.941,2.074-1.884,3.111-2.825
					c-0.21,0.635-0.553,1.168-1.014,1.587C219.193,36.844,217.949,37.975,217.016,38.822z"/>
			</g>
			<g>
				<path fill="#FFFFFF" d="M222.137,43.043c-0.553,0.502-1.226,0.922-2.007,1.252c0.25-0.227,0.499-0.453,0.749-0.68
					c0.787-0.715,1.575-1.431,2.362-2.146c0.781-0.331,1.454-0.75,2.007-1.253C224.314,41.064,223.07,42.195,222.137,43.043z"/>
			</g>
			<g>
				<path fill="#FAA638" d="M220.126,35.996l-3.11,2.826c-0.026,0.023-0.053,0.047-0.08,0.07c-0.526,0.451-1.272,0.648-2.213,0.581
					c-0.906-0.064-1.735-0.442-2.461-1.122c-0.577-0.54-0.977-1.17-1.174-1.872l3.11-2.825c0.197,0.701,0.598,1.332,1.174,1.872
					c0.726,0.68,1.555,1.057,2.461,1.122c0.94,0.066,1.687-0.13,2.213-0.582C220.074,36.044,220.1,36.021,220.126,35.996z"/>
			</g>
			<g>
				<path fill="#FFFFFF" d="M215.04,44.869c1.039-0.94,2.074-1.885,3.111-2.826c2.112,0.151,3.823-0.045,5.089-0.573
					c-0.787,0.715-1.575,1.431-2.362,2.146c-0.25,0.227-0.499,0.453-0.749,0.68C218.863,44.824,217.152,45.02,215.04,44.869z"/>
			</g>
			<g>
				<polygon fill="#FAA638" points="214.198,33.654 211.088,36.479 205.54,37.459 208.65,34.633 				"/>
			</g>
			<g>
				<polygon fill="#FAA638" points="207.617,34.292 204.507,37.118 204.401,36.664 207.511,33.838 				"/>
			</g>
			<g>
				<path fill="#FFFFFF" d="M215.04,44.869c-2.437-0.175-4.547-0.919-6.244-2.2c1.037-0.942,2.074-1.884,3.111-2.826
					c1.697,1.282,3.807,2.026,6.244,2.2C217.114,42.985,216.078,43.929,215.04,44.869z"/>
			</g>
			<g>
				<path fill="#FFFFFF" d="M227.158,10.358l0.54,21.159c0.037,1.455-0.054,2.885-0.268,4.244c-0.213,1.317-0.653,2.489-1.32,3.465
					c-0.649,0.959-1.62,1.715-2.87,2.244c-1.267,0.528-2.978,0.725-5.09,0.573c-2.437-0.174-4.547-0.918-6.244-2.2
					c-1.575-1.179-2.669-2.933-3.257-5.21l5.548-0.979c0.197,0.701,0.598,1.332,1.174,1.872c0.726,0.68,1.555,1.057,2.461,1.122
					c0.94,0.066,1.687-0.13,2.213-0.582c0.501-0.429,0.871-0.986,1.093-1.657c0.206-0.639,0.333-1.344,0.356-2.099
					c0.033-0.72,0.033-1.398,0.017-2.019l-0.519-20.375L227.158,10.358z"/>
			</g>
			<g>
				<path fill="#FFFFFF" d="M208.796,42.669c-1.575-1.179-2.669-2.934-3.256-5.21l3.11-2.826c0.587,2.277,1.682,4.031,3.257,5.21
					C210.87,40.785,209.833,41.727,208.796,42.669z"/>
			</g>
			<g>
				<path fill="#FAA638" d="M225.918,40.96l-3.11,2.826c-0.621,0.563-1.371,1.03-2.246,1.4c-1.393,0.587-3.24,0.8-5.498,0.638
					c-2.634-0.188-4.925-0.996-6.787-2.401c-1.897-1.426-3.164-3.545-3.771-6.305l3.11-2.826c0.608,2.759,1.874,4.878,3.771,6.304
					c1.862,1.405,4.153,2.214,6.787,2.402c2.257,0.161,4.104-0.051,5.498-0.639C224.547,41.991,225.297,41.523,225.918,40.96z"/>
			</g>
			<g>
				<path fill="#FAA638" d="M220.02,8.894l8.063,0.577l0.564,22.114c0.039,1.516-0.051,3.005-0.28,4.416
					c-0.227,1.453-0.724,2.733-1.456,3.815c-0.74,1.099-1.828,1.949-3.239,2.545c-1.393,0.588-3.24,0.8-5.498,0.639
					c-2.634-0.188-4.924-0.997-6.787-2.402c-1.897-1.426-3.163-3.545-3.771-6.304l-0.106-0.454l7.444-1.308l0.073,0.539
					c0.095,0.686,0.408,1.275,0.959,1.787c0.551,0.513,1.146,0.787,1.822,0.836c0.692,0.049,1.228-0.076,1.586-0.386
					c0.393-0.333,0.664-0.752,0.838-1.28c0.182-0.555,0.286-1.175,0.311-1.844c0.034-0.694,0.034-1.355,0.019-1.958L220.02,8.894z
					 M227.698,31.517l-0.54-21.159l-6.165-0.441l0.519,20.375c0.016,0.62,0.016,1.299-0.017,2.019
					c-0.023,0.755-0.15,1.459-0.355,2.099c-0.222,0.671-0.592,1.229-1.093,1.657c-0.526,0.452-1.272,0.648-2.213,0.582
					c-0.906-0.065-1.735-0.442-2.461-1.122c-0.577-0.54-0.977-1.171-1.174-1.872l-5.548,0.979c0.587,2.277,1.682,4.031,3.257,5.21
					c1.697,1.282,3.807,2.026,6.244,2.2c2.112,0.151,3.823-0.045,5.09-0.573c1.25-0.529,2.221-1.285,2.87-2.244
					c0.667-0.976,1.106-2.147,1.32-3.465C227.644,34.401,227.735,32.972,227.698,31.517"/>
			</g>
		</g>
	</g>
</g>
<g>
	<g>
		<g enable-background="new    ">
			<g>
				<path fill="#FAA638" d="M200.908,33.678l-2.993,2.722c0.802-1.989,1.177-4.283,1.128-6.823c-0.049-2.531-0.515-4.894-1.396-7
					c-0.882-2.106-2.1-3.952-3.631-5.5c-1.53-1.539-3.363-2.789-5.448-3.703c-2.084-0.922-4.392-1.472-6.856-1.645
					c-2.464-0.172-4.757,0.056-6.82,0.688c-2.054,0.624-3.836,1.621-5.311,2.95l2.993-2.722c1.475-1.329,3.256-2.326,5.31-2.95
					c2.063-0.632,4.357-0.86,6.821-0.688c2.464,0.172,4.772,0.722,6.856,1.645c2.084,0.914,3.918,2.163,5.448,3.703
					c1.531,1.547,2.749,3.393,3.63,5.5c0.881,2.106,1.347,4.468,1.396,7C202.085,29.395,201.709,31.689,200.908,33.678z"/>
			</g>
			<g>
				<path fill="#FFFFFF" d="M194.492,21.251c-0.729-0.888-1.466-1.776-2.195-2.673c0.998-0.907,1.995-1.814,2.993-2.721
					c0.729,0.896,1.466,1.785,2.195,2.672C196.487,19.437,195.489,20.344,194.492,21.251z"/>
			</g>
			<g>
				<path fill="#FFFFFF" d="M192.297,18.578c-0.711-0.86-1.755-1.598-2.584-2.354l2.993-2.722c0.829,0.757,1.873,1.494,2.583,2.355
					C194.292,16.764,193.294,17.671,192.297,18.578z"/>
			</g>
			<g>
				<path fill="#FFFFFF" d="M194.493,21.588c0.09-0.082,0.083-0.233-0.001-0.337c0.998-0.907,1.996-1.814,2.993-2.722
					c0.084,0.104,0.091,0.256,0.001,0.338C196.588,19.684,195.391,20.772,194.493,21.588z"/>
			</g>
			<g>
				<path fill="#FAA638" d="M197.486,18.867l-2.993,2.721c-0.013,0.012-0.028,0.022-0.045,0.031l2.993-2.722
					C197.458,18.889,197.473,18.879,197.486,18.867z"/>
			</g>
			<g>
				<path fill="#FFFFFF" d="M189.385,16.191l2.993-2.722c0.041-0.038,0.096-0.053,0.152-0.049c0.062,0.004,0.125,0.033,0.176,0.082
					l-2.993,2.722c-0.051-0.05-0.114-0.078-0.176-0.082C189.48,16.138,189.426,16.153,189.385,16.191z"/>
			</g>
			<g>
				<path fill="#FAA638" d="M189.385,16.191l2.993-2.722c-0.015,0.014-0.029,0.031-0.04,0.05l-2.993,2.722
					C189.356,16.221,189.37,16.205,189.385,16.191z"/>
			</g>
			<g>
				<path fill="#FAA638" d="M196.954,18.601l-2.993,2.722c-0.641-0.812-1.264-1.753-2.01-2.44c-0.776-0.713-1.554-1.418-2.33-2.129
					l2.993-2.722c0.776,0.711,1.553,1.417,2.33,2.129C195.689,16.848,196.312,17.789,196.954,18.601z"/>
			</g>
			<g>
				<path fill="#FFFFFF" d="M199.48,23.285l-2.993,2.721c-0.01-0.137-0.119-0.248-0.249-0.256c-0.019-0.001-0.037,0-0.056,0.002
					l2.993-2.722c0.019-0.002,0.038-0.004,0.056-0.002C199.362,23.037,199.47,23.148,199.48,23.285z"/>
			</g>
			<g>
				<path fill="#FFFFFF" d="M188.313,11.59l-2.993,2.721c0.031-0.153-0.083-0.29-0.238-0.318l2.993-2.722
					C188.231,11.3,188.345,11.437,188.313,11.59z"/>
			</g>
			<g>
				<path fill="#FFFFFF" d="M196.81,29.377c0.065-1.065-0.216-2.285-0.322-3.371l2.993-2.721c0.106,1.086,0.387,2.305,0.322,3.37
					C198.905,27.472,197.708,28.561,196.81,29.377z"/>
			</g>
			<g>
				<path fill="#FFFFFF" d="M196.625,32.668c0.065-1.1,0.129-2.191,0.185-3.291l2.993-2.722c-0.056,1.1-0.12,2.191-0.185,3.291
					C198.72,30.763,197.522,31.852,196.625,32.668z"/>
			</g>
			<g>
				<path fill="#FAA638" d="M199.159,29.611l-2.993,2.721c0.083-0.981,0.26-2.03,0.17-3.006c-0.097-1.017-0.195-2.027-0.299-3.043
					l2.993-2.722c0.104,1.017,0.202,2.027,0.299,3.044C199.419,27.581,199.242,28.63,199.159,29.611z"/>
			</g>
			<g>
				<path fill="#FFFFFF" d="M199.54,30.112l-2.993,2.722c0.043-0.039,0.071-0.098,0.078-0.166l2.993-2.722
					C199.611,30.015,199.583,30.073,199.54,30.112z"/>
			</g>
			<g>
				<path fill="#FFFFFF" d="M188.076,11.271l-2.993,2.722c-1.109-0.164-2.21-0.327-3.319-0.491c-0.149-0.022-0.3-0.038-0.453-0.049
					c-0.938-0.065-1.933,0.066-2.848,0.068l2.993-2.722c0.915-0.002,1.909-0.134,2.848-0.068c0.153,0.011,0.304,0.026,0.453,0.049
					C185.866,10.944,186.967,11.108,188.076,11.271z"/>
			</g>
			<g>
				<path fill="#FAA638" d="M187.781,11.706l-2.993,2.722c-0.854-0.149-1.767-0.377-2.619-0.437c-0.14-0.01-0.278-0.015-0.414-0.014
					c-0.996,0.008-1.986,0.017-2.98,0.026l2.993-2.722c0.995-0.009,1.985-0.018,2.981-0.026c0.135,0,0.273,0.004,0.414,0.014
					C186.015,11.329,186.928,11.557,187.781,11.706z"/>
			</g>
			<g>
				<path fill="#FFFFFF" d="M178.302,13.584l2.993-2.721c0.041-0.038,0.097-0.06,0.161-0.063l-2.993,2.722
					C178.399,13.524,178.343,13.547,178.302,13.584z"/>
			</g>
			<g>
				<path fill="#FAA638" d="M178.302,13.584l2.993-2.721c-0.058,0.053-0.086,0.135-0.065,0.232l-2.993,2.722
					C178.215,13.719,178.244,13.637,178.302,13.584z"/>
			</g>
			<g>
				<path fill="#FFFFFF" d="M194.816,37.158c0.093-0.106,0.08-0.289-0.059-0.375l2.993-2.722c0.139,0.086,0.151,0.269,0.059,0.375
					C196.912,35.253,195.715,36.342,194.816,37.158z"/>
			</g>
			<g>
				<path fill="#FFFFFF" d="M174.286,15.214c-0.045-0.084-0.12-0.126-0.197-0.131c0.998-0.908,1.996-1.815,2.993-2.722
					c0.077,0.005,0.152,0.046,0.196,0.131C176.381,13.309,175.184,14.397,174.286,15.214z"/>
			</g>
			<g>
				<path fill="#FFFFFF" d="M174.089,15.083c-0.062-0.005-0.125,0.015-0.174,0.053c0.24-0.218,0.48-0.437,0.72-0.655
					c0.758-0.689,1.515-1.378,2.273-2.067c0.049-0.039,0.112-0.058,0.174-0.053C176.085,13.268,175.087,14.175,174.089,15.083z"/>
			</g>
			<g>
				<path fill="#FFFFFF" d="M192.614,14.031c0.776,0.711,1.553,1.417,2.33,2.129c0.746,0.687,1.369,1.628,2.01,2.44
					c-3.394,1.793-6.782,3.588-10.175,5.381C188.724,20.67,190.669,17.351,192.614,14.031z"/>
			</g>
			<g>
				<path fill="#FFFFFF" d="M186.779,23.982l-2.993,2.722c1.945-3.312,3.89-6.632,5.835-9.951l2.993-2.722
					C190.669,17.351,188.724,20.67,186.779,23.982z"/>
			</g>
			<g>
				<path fill="#FFFFFF" d="M196.954,18.601l-2.993,2.722c-3.394,1.793-6.782,3.587-10.175,5.381l2.993-2.722
					C190.172,22.189,193.56,20.395,196.954,18.601z"/>
			</g>
			<g>
				<path fill="#FAA638" d="M197.441,18.897l-2.993,2.722c-3.717,1.979-7.444,3.947-11.171,5.917l2.993-2.722
					C189.997,22.845,193.723,20.876,197.441,18.897z"/>
			</g>
			<g>
				<path fill="#FFFFFF" d="M183.423,28.263l2.993-2.721c0.025-0.023,0.058-0.04,0.1-0.048c4.22-0.818,8.44-1.636,12.659-2.462
					l-2.993,2.722c-4.22,0.827-8.44,1.645-12.66,2.462C183.481,28.223,183.448,28.24,183.423,28.263z"/>
			</g>
			<g>
				<path fill="#FAA638" d="M199.031,23.561l-2.993,2.722c-3.83,0.743-7.66,1.492-11.491,2.235l2.993-2.722
					C191.371,25.053,195.201,24.304,199.031,23.561z"/>
			</g>
			<g>
				<path fill="#FFFFFF" d="M199.159,29.611l-2.993,2.721c-3.873-1.274-7.746-2.541-11.619-3.814l2.993-2.722
					C191.414,27.07,195.287,28.337,199.159,29.611z"/>
			</g>
			<g>
				<path fill="#FAA638" d="M183.423,28.263l2.993-2.721c-0.048,0.043-0.067,0.107-0.062,0.173l-2.993,2.722
					C183.356,28.371,183.375,28.306,183.423,28.263z"/>
			</g>
			<g>
				<path fill="#FAA638" d="M199.48,23.285c0.106,1.086,0.387,2.305,0.322,3.37c-0.056,1.1-0.12,2.191-0.185,3.291
					c-0.012,0.132-0.106,0.227-0.23,0.218c-0.021-0.001-0.043-0.006-0.066-0.014c-4.262-1.394-8.534-2.797-12.796-4.19
					c-0.123-0.042-0.174-0.146-0.172-0.245c-0.006-0.101,0.042-0.198,0.163-0.222c4.22-0.818,8.44-1.636,12.659-2.462
					c0.019-0.002,0.038-0.004,0.056-0.002C199.362,23.037,199.47,23.148,199.48,23.285z M199.159,29.611
					c0.083-0.981,0.26-2.03,0.171-3.006c-0.097-1.017-0.195-2.027-0.299-3.044c-3.83,0.743-7.661,1.492-11.491,2.235
					C191.414,27.07,195.287,28.337,199.159,29.611"/>
			</g>
			<g>
				<path fill="#FFFFFF" d="M199.031,23.561c0.104,1.017,0.202,2.027,0.299,3.044c0.089,0.976-0.088,2.025-0.171,3.006
					c-3.873-1.274-7.746-2.542-11.619-3.815C191.371,25.053,195.201,24.304,199.031,23.561z"/>
			</g>
			<g>
				<path fill="#FAA638" d="M185.979,24.781l-2.993,2.722c-0.085-0.072-0.132-0.189-0.065-0.305
					c2.142-3.647,4.283-7.302,6.425-10.957l2.993-2.722c-2.142,3.655-4.283,7.31-6.425,10.957
					C185.846,24.591,185.894,24.709,185.979,24.781z"/>
			</g>
			<g>
				<path fill="#FFFFFF" d="M185.23,24.161l-2.993,2.722c1.025-4.19,2.05-8.381,3.084-12.571l2.993-2.721
					C187.28,15.78,186.255,19.971,185.23,24.161z"/>
			</g>
			<g>
				<path fill="#FAA638" d="M184.979,23.119l-2.993,2.722c0.933-3.806,1.871-7.606,2.802-11.413l2.993-2.722
					C186.851,15.513,185.912,19.312,184.979,23.119z"/>
			</g>
			<g>
				<path fill="#FFFFFF" d="M184.979,23.119l-2.993,2.722c-1.072-3.946-2.138-7.891-3.211-11.837l2.993-2.722
					C182.841,15.228,183.908,19.173,184.979,23.119z"/>
			</g>
			<g>
				<path fill="#FFFFFF" d="M182.177,26.985c0.027-0.024,0.047-0.059,0.06-0.103l2.993-2.722c-0.012,0.044-0.032,0.079-0.06,0.104
					C184.272,25.081,183.075,26.169,182.177,26.985z"/>
			</g>
			<g>
				<path fill="#FAA638" d="M188.076,11.271c0.155,0.028,0.269,0.166,0.237,0.319c-1.033,4.189-2.059,8.38-3.083,12.57
					c-0.032,0.118-0.123,0.164-0.217,0.157c-0.116-0.008-0.201-0.06-0.238-0.166c-1.191-4.375-2.363-8.715-3.544-13.057
					c-0.037-0.167,0.072-0.288,0.226-0.295c0.915-0.002,1.909-0.134,2.848-0.068c0.153,0.011,0.304,0.026,0.453,0.049
					C185.866,10.944,186.967,11.108,188.076,11.271z M184.979,23.119c0.933-3.806,1.871-7.606,2.802-11.413
					c-0.853-0.149-1.767-0.377-2.619-0.437c-0.14-0.01-0.278-0.015-0.414-0.014c-0.996,0.008-1.986,0.018-2.981,0.026
					C182.841,15.228,183.908,19.173,184.979,23.119"/>
			</g>
			<g>
				<path fill="#FAA638" d="M186.27,24.814l-2.993,2.722c-0.016,0.012-0.034,0.021-0.052,0.026l2.993-2.721
					C186.236,24.835,186.253,24.826,186.27,24.814z"/>
			</g>
			<g>
				<path fill="#FAA638" d="M186.218,24.841l-2.993,2.721c-0.031,0.013-0.061,0.017-0.09,0.015
					c-0.057-0.004-0.108-0.034-0.149-0.075l2.993-2.722c0.041,0.042,0.093,0.071,0.149,0.075
					C186.157,24.858,186.187,24.854,186.218,24.841z"/>
			</g>
			<g>
				<path fill="#FAA638" d="M197.485,18.529c0.097,0.119,0.091,0.3-0.044,0.368c-3.718,1.979-7.444,3.948-11.171,5.917
					c-0.017,0.012-0.034,0.021-0.052,0.027c-0.031,0.012-0.061,0.017-0.09,0.015c-0.057-0.004-0.108-0.033-0.149-0.075
					c-0.085-0.072-0.132-0.189-0.065-0.304c2.142-3.647,4.283-7.302,6.425-10.957c0.042-0.074,0.115-0.105,0.192-0.1
					c0.062,0.004,0.125,0.033,0.176,0.082c0.829,0.757,1.873,1.494,2.583,2.355C196.019,16.753,196.756,17.642,197.485,18.529z
					 M186.779,23.982c3.393-1.793,6.781-3.588,10.175-5.381c-0.641-0.812-1.264-1.753-2.01-2.44
					c-0.777-0.713-1.554-1.418-2.33-2.129C190.669,17.351,188.724,20.67,186.779,23.982"/>
			</g>
			<g>
				<path fill="#FAA638" d="M199.54,30.112l-2.993,2.722c-0.04,0.037-0.092,0.056-0.152,0.052c-0.021-0.001-0.043-0.006-0.066-0.014
					c-4.263-1.394-8.534-2.797-12.796-4.19c-0.123-0.042-0.174-0.146-0.172-0.245l2.993-2.722c-0.002,0.1,0.049,0.204,0.172,0.245
					c4.262,1.394,8.534,2.797,12.796,4.19c0.023,0.008,0.045,0.013,0.066,0.014C199.447,30.168,199.5,30.149,199.54,30.112z"/>
			</g>
			<g>
				<path fill="#FAA638" d="M184.774,24.151l-2.993,2.722c-1.191-4.375-2.363-8.715-3.544-13.057l2.993-2.722
					C182.411,15.436,183.583,19.776,184.774,24.151z"/>
			</g>
			<g>
				<path fill="#FAA638" d="M185.168,24.268l-2.993,2.721c-0.042,0.039-0.098,0.054-0.155,0.05c-0.116-0.008-0.2-0.06-0.238-0.166
					l2.993-2.722c0.038,0.106,0.123,0.158,0.238,0.166C185.069,24.321,185.125,24.307,185.168,24.268z"/>
			</g>
			<g>
				<path fill="#FFFFFF" d="M192.912,39.377c0.702-0.638,1.281-1.52,1.905-2.219l2.993-2.722c-0.625,0.7-1.203,1.581-1.905,2.219
					C195.007,37.472,193.81,38.561,192.912,39.377z"/>
			</g>
			<g>
				<path fill="#FAA638" d="M197.48,38.684l-2.993,2.722c1.475-1.337,2.625-3.017,3.427-5.006l2.993-2.722
					C200.105,35.667,198.955,37.347,197.48,38.684z"/>
			</g>
			<g>
				<path fill="#FFFFFF" d="M183.006,29.314l2.993-2.722c0.041-0.037,0.093-0.059,0.153-0.055c0.038,0.002,0.079,0.016,0.119,0.042
					c3.83,2.494,7.651,4.987,11.48,7.481l-2.993,2.722c-3.829-2.494-7.65-4.987-11.479-7.481c-0.041-0.027-0.082-0.04-0.12-0.042
					C183.099,29.255,183.046,29.277,183.006,29.314z"/>
			</g>
			<g>
				<path fill="#FAA638" d="M195.354,36.465l-2.993,2.722c0.64-0.724,1.28-1.446,1.913-2.17l2.993-2.721
					C196.633,35.019,195.994,35.742,195.354,36.465z"/>
			</g>
			<g>
				<path fill="#FFFFFF" d="M184.125,24.357l-2.993,2.722c-2.276-3.958-4.562-7.916-6.846-11.865l2.993-2.722
					C179.563,16.441,181.848,20.399,184.125,24.357z"/>
			</g>
			<g>
				<path fill="#FAA638" d="M172.157,17.102l2.993-2.721c0.568-0.517,1.26-0.958,1.867-1.423l-2.993,2.722
					C173.417,16.144,172.725,16.586,172.157,17.102z"/>
			</g>
			<g>
				<path fill="#FFFFFF" d="M184.16,24.431l-2.993,2.721c-0.007-0.025-0.019-0.05-0.035-0.073l2.993-2.722
					C184.142,24.38,184.153,24.405,184.16,24.431z"/>
			</g>
			<g>
				<path fill="#FAA638" d="M197.267,34.295l-2.993,2.721c-3.478-2.265-6.951-4.53-10.428-6.795l2.993-2.721
					C190.316,29.765,193.789,32.03,197.267,34.295z"/>
			</g>
			<g>
				<path fill="#FAA638" d="M183.006,29.314l2.993-2.722c-0.007,0.007-0.015,0.015-0.021,0.022l-2.993,2.722
					C182.991,29.329,182.999,29.321,183.006,29.314z"/>
			</g>
			<g>
				<path fill="#FFFFFF" d="M184.103,24.658l-2.993,2.722c0.058-0.053,0.089-0.135,0.058-0.228l2.993-2.721
					C184.191,24.523,184.161,24.605,184.103,24.658z"/>
			</g>
			<g>
				<path fill="#FAA638" d="M184.09,24.671l-2.993,2.721c-0.041,0.037-0.094,0.059-0.153,0.055
					c-0.021-0.001-0.042-0.006-0.064-0.015l2.993-2.721c0.022,0.008,0.043,0.013,0.064,0.014
					C183.996,24.73,184.049,24.708,184.09,24.671z"/>
			</g>
			<g>
				<polygon fill="#FFFFFF" points="184.09,24.671 181.097,27.392 181.109,27.38 184.103,24.658 				"/>
			</g>
			<g>
				<path fill="#FAA638" d="M183.251,23.761l-2.993,2.722c-2.074-3.604-4.154-7.207-6.234-10.803l2.993-2.722
					C179.098,16.554,181.178,20.157,183.251,23.761z"/>
			</g>
			<g>
				<path fill="#FAA638" d="M185.928,26.833l-2.993,2.722c-0.03-0.088-0.004-0.167,0.049-0.218l2.993-2.722
					C185.924,26.667,185.898,26.745,185.928,26.833z"/>
			</g>
			<g>
				<path fill="#FAA638" d="M185.964,26.909l-2.993,2.722c-0.018-0.024-0.03-0.049-0.037-0.075l2.993-2.722
					C185.935,26.859,185.947,26.885,185.964,26.909z"/>
			</g>
			<g>
				<path fill="#FAA638" d="M194.953,36.867l-2.993,2.722c0.142-0.13,0.277-0.264,0.401-0.402l2.993-2.722
					C195.229,36.604,195.095,36.737,194.953,36.867z"/>
			</g>
			<g>
				<path fill="#FAA638" d="M183.872,24.711l-2.993,2.721c-0.028-0.009-0.056-0.023-0.081-0.045l2.993-2.722
					C183.816,24.688,183.843,24.702,183.872,24.711z"/>
			</g>
			<g>
				<path fill="#FFFFFF" d="M173.916,15.136c-0.827,0.667-1.663,1.333-2.491,1.992c0.629-0.572,1.259-1.145,1.888-1.717
					c0.369-0.335,0.737-0.67,1.105-1.005c0.827-0.658,1.664-1.325,2.491-1.992c-0.564,0.513-1.128,1.026-1.693,1.54
					C174.782,14.348,174.361,14.755,173.916,15.136z"/>
			</g>
			<g>
				<path fill="#FFFFFF" d="M171.758,17.504c0.123-0.14,0.257-0.273,0.399-0.402l2.993-2.721c-0.142,0.129-0.276,0.262-0.399,0.402
					C173.753,15.69,172.755,16.597,171.758,17.504z"/>
			</g>
			<g>
				<path fill="#FFFFFF" d="M171.425,17.128c0.629-0.572,1.259-1.145,1.888-1.717c0.369-0.335,0.737-0.67,1.105-1.005
					c-0.07,0.057-0.139,0.116-0.206,0.178l-2.993,2.721C171.286,17.244,171.355,17.185,171.425,17.128z"/>
			</g>
			<g>
				<path fill="#FFFFFF" d="M182.098,29.638c-0.007,0-0.014-0.001-0.021-0.001c0.998-0.908,1.996-1.814,2.993-2.722
					c0.007,0,0.013,0,0.02,0.001c0.095,0.006,0.188,0.064,0.222,0.184c-0.998,0.908-1.996,1.814-2.993,2.722
					C182.286,29.702,182.193,29.645,182.098,29.638z"/>
			</g>
			<g>
				<path fill="#FFFFFF" d="M183.772,25.564l-2.993,2.722c0.003-0.095-0.046-0.194-0.165-0.237l2.993-2.721
					C183.726,25.371,183.775,25.469,183.772,25.564z"/>
			</g>
			<g>
				<path fill="#FFFFFF" d="M182.078,29.637c-0.067-0.001-0.125,0.015-0.165,0.051l2.993-2.721c0.041-0.037,0.098-0.053,0.165-0.052
					c-0.82,0.746-1.64,1.492-2.46,2.237c-0.108,0.098-0.252,0.229-0.361,0.328C182.198,29.528,182.143,29.613,182.078,29.637z"/>
			</g>
			<g>
				<path fill="#FFFFFF" d="M180.719,28.451c0.047-0.043,0.064-0.103,0.06-0.165l2.993-2.722c0.004,0.062-0.013,0.122-0.06,0.165
					C182.814,26.545,181.617,27.634,180.719,28.451z"/>
			</g>
			<g>
				<path fill="#FAA638" d="M183.712,25.731l-2.993,2.722c-0.024,0.022-0.057,0.039-0.097,0.048l2.993-2.722
					C183.656,25.771,183.688,25.753,183.712,25.731z"/>
			</g>
			<g>
				<path fill="#FFFFFF" d="M184.264,26.743l-2.993,2.722c0.028-0.089-0.005-0.176-0.066-0.237l2.993-2.722
					C184.259,26.567,184.292,26.654,184.264,26.743z"/>
			</g>
			<g>
				<path fill="#FFFFFF" d="M184.198,26.506l-2.993,2.722c-0.043-0.05-0.103-0.086-0.169-0.091c-0.021-0.001-0.042,0-0.064,0.006
					l2.993-2.722c0.022-0.005,0.043-0.007,0.064-0.005C184.095,26.42,184.155,26.456,184.198,26.506z"/>
			</g>
			<g>
				<path fill="#FFFFFF" d="M184.231,26.812l-2.993,2.722c0.016-0.021,0.027-0.045,0.033-0.069l2.993-2.722
					C184.258,26.768,184.248,26.791,184.231,26.812z"/>
			</g>
			<g>
				<path fill="#FFFFFF" d="M183.965,26.421l-2.993,2.722c-0.027,0.005-0.055,0.016-0.079,0.034l2.993-2.722
					C183.91,26.437,183.938,26.426,183.965,26.421z"/>
			</g>
			<g>
				<path fill="#FFFFFF" d="M194.953,36.867l-2.993,2.721c-0.562,0.512-1.24,0.953-1.843,1.412l2.993-2.722
					C193.713,37.819,194.39,37.378,194.953,36.867z"/>
			</g>
			<g>
				<path fill="#FFFFFF" d="M193.109,38.278L190.116,41c-2.095-3.596-4.183-7.184-6.27-10.779l2.993-2.721
					C188.927,31.094,191.015,34.683,193.109,38.278z"/>
			</g>
			<g>
				<path fill="#FAA638" d="M197.751,34.062c0.139,0.086,0.151,0.269,0.059,0.375c-0.688,0.771-1.32,1.762-2.123,2.405
					c-0.819,0.659-1.638,1.317-2.465,1.984c-0.048,0.038-0.109,0.055-0.169,0.051c-0.079-0.005-0.156-0.047-0.201-0.129
					c-2.301-3.949-4.594-7.89-6.887-11.839c-0.017-0.024-0.029-0.049-0.036-0.075c-0.03-0.088-0.004-0.167,0.049-0.218
					c0.042-0.05,0.104-0.082,0.174-0.077c0.038,0.002,0.079,0.016,0.119,0.042C190.101,29.074,193.922,31.567,197.751,34.062z
					 M195.354,36.465c0.64-0.723,1.279-1.446,1.913-2.169c-3.478-2.265-6.951-4.531-10.428-6.795
					c2.087,3.594,4.175,7.183,6.27,10.778C193.865,37.704,194.737,37.156,195.354,36.465"/>
			</g>
			<g>
				<path fill="#FFFFFF" d="M186.839,27.5c3.477,2.265,6.95,4.53,10.428,6.795c-0.634,0.723-1.273,1.447-1.913,2.169
					c-0.617,0.691-1.489,1.239-2.245,1.813C191.015,34.683,188.927,31.094,186.839,27.5z"/>
			</g>
			<g>
				<path fill="#FAA638" d="M195.905,36.655l-2.993,2.722c-0.071,0.064-0.144,0.127-0.217,0.187
					c-0.819,0.659-1.638,1.317-2.465,1.984l2.993-2.722c0.827-0.667,1.646-1.325,2.465-1.984
					C195.761,36.782,195.833,36.721,195.905,36.655z"/>
			</g>
			<g>
				<path fill="#FAA638" d="M192.852,38.748l-2.993,2.722c-2.301-3.95-4.594-7.891-6.887-11.839l2.993-2.722
					C188.257,30.858,190.55,34.799,192.852,38.748z"/>
			</g>
			<g>
				<path fill="#FAA638" d="M193.222,38.826l-2.993,2.722c-0.048,0.038-0.109,0.055-0.169,0.051
					c-0.079-0.005-0.156-0.047-0.201-0.129l2.993-2.722c0.045,0.082,0.123,0.124,0.201,0.129
					C193.113,38.881,193.174,38.864,193.222,38.826z"/>
			</g>
			<g>
				<path fill="#FFFFFF" d="M169.855,19.655c0.633-0.721,1.271-1.436,1.902-2.151c0.998-0.907,1.995-1.814,2.993-2.721
					c-0.996,0.905-1.992,1.812-2.989,2.717c0.997-0.906,1.993-1.812,2.989-2.717c-0.631,0.715-1.27,1.43-1.902,2.15
					C171.951,17.75,170.753,18.839,169.855,19.655z"/>
			</g>
			<g>
				<path fill="#FFFFFF" d="M183.251,23.761l-2.993,2.722c-3.466-2.28-6.938-4.554-10.403-6.827l2.993-2.722
					C176.314,19.207,179.785,21.481,183.251,23.761z"/>
			</g>
			<g>
				<path fill="#FAA638" d="M184.16,24.431c0.031,0.093,0,0.174-0.058,0.228c-0.042,0.044-0.1,0.072-0.166,0.067
					c-0.021-0.001-0.042-0.006-0.064-0.014c-0.029-0.009-0.056-0.024-0.081-0.045c-3.804-2.503-7.617-5-11.42-7.496
					c-0.147-0.097-0.16-0.27-0.059-0.384c0.68-0.763,1.312-1.737,2.106-2.38c0.827-0.658,1.664-1.325,2.491-1.992
					c0.049-0.039,0.112-0.058,0.174-0.053c0.077,0.005,0.152,0.046,0.196,0.131c2.285,3.949,4.569,7.907,6.846,11.865
					C184.142,24.38,184.153,24.405,184.16,24.431z M172.849,16.934c3.465,2.273,6.937,4.547,10.402,6.827
					c-2.073-3.604-4.153-7.207-6.234-10.803c-0.758,0.581-1.651,1.126-2.266,1.826C174.12,15.498,173.481,16.212,172.849,16.934"/>
			</g>
			<g>
				<path fill="#FFFFFF" d="M177.017,12.958c2.081,3.597,4.161,7.2,6.234,10.803c-3.466-2.28-6.937-4.554-10.402-6.827
					c0.632-0.721,1.271-1.436,1.902-2.15C175.366,14.083,176.259,13.539,177.017,12.958z"/>
			</g>
			<g>
				<path fill="#FAA638" d="M171.219,17.305l2.993-2.721c-0.699,0.636-1.28,1.507-1.9,2.203c-0.101,0.114-0.088,0.287,0.059,0.384
					c3.804,2.496,7.617,4.992,11.42,7.496l-2.993,2.722c-3.804-2.504-7.617-5-11.42-7.496c-0.147-0.097-0.16-0.27-0.059-0.384
					C169.938,18.812,170.519,17.941,171.219,17.305z"/>
			</g>
			<g>
				<path fill="#FFFFFF" d="M194.487,41.405c-1.475,1.329-3.265,2.326-5.319,2.95c0.998-0.907,1.996-1.814,2.993-2.722
					c2.055-0.624,3.845-1.62,5.319-2.95C196.583,39.501,195.385,40.589,194.487,41.405z"/>
			</g>
			<g>
				<path fill="#FFFFFF" d="M169.582,15.368c0.478-0.419,2.105-1.909,2.644-2.404l0.35-0.318c-1.475,1.338-2.625,3.017-3.427,5.006
					c-0.998,0.907-1.996,1.814-2.993,2.721C166.957,18.385,168.107,16.706,169.582,15.368z"/>
			</g>
			<g>
				<path fill="#FFFFFF" d="M185.898,42.858c-1.19-4.346-2.389-8.691-3.579-13.037c0.998-0.908,1.996-1.814,2.993-2.722
					c1.19,4.346,2.389,8.691,3.579,13.037l0,0C187.894,41.044,186.896,41.951,185.898,42.858z"/>
			</g>
			<g>
				<path fill="#FFFFFF" d="M185.839,43.084c0.058-0.053,0.086-0.135,0.06-0.226c0.998-0.907,1.995-1.814,2.993-2.722
					c0.026,0.091-0.001,0.173-0.06,0.226C187.934,41.179,186.737,42.268,185.839,43.084z"/>
			</g>
			<g>
				<path fill="#FAA638" d="M188.351,39.942l-2.993,2.722c-1.08-3.945-2.161-7.89-3.248-11.834l2.993-2.722
					C186.189,32.053,187.27,35.998,188.351,39.942z"/>
			</g>
			<g>
				<path fill="#FAA638" d="M188.832,40.362l-2.993,2.722c-0.042,0.039-0.101,0.062-0.167,0.061l2.993-2.722
					C188.73,40.424,188.79,40.401,188.832,40.362z"/>
			</g>
			<g>
				<path fill="#FFFFFF" d="M180.614,28.049c-4.282-1.426-8.54-2.836-12.798-4.245c0.998-0.907,1.995-1.814,2.993-2.722
					c4.251,1.407,8.502,2.814,12.776,4.238c-0.995,0.905-1.99,1.81-2.986,2.715c0.996-0.905,1.991-1.81,2.986-2.715
					c0.007,0.002,0.015,0.005,0.022,0.008C182.709,26.144,181.513,27.232,180.614,28.049z"/>
			</g>
			<g>
				<path fill="#FFFFFF" d="M167.816,23.804c-0.022-0.008-0.043-0.012-0.063-0.014c0.564-0.513,1.128-1.026,1.692-1.539
					c0.434-0.394,0.867-0.788,1.301-1.182c0.02,0.001,0.041,0.005,0.062,0.013C169.811,21.989,168.813,22.896,167.816,23.804z"/>
			</g>
			<g>
				<path fill="#FFFFFF" d="M167.753,23.79c-0.06-0.004-0.112,0.017-0.152,0.053l2.993-2.722c0.04-0.037,0.093-0.057,0.152-0.053
					c-0.24,0.218-0.48,0.437-0.721,0.655C169.268,22.413,168.51,23.102,167.753,23.79z"/>
			</g>
			<g>
				<path fill="#FAA638" d="M182.596,25.48l-2.993,2.722c-3.876-1.284-7.747-2.567-11.625-3.858l2.993-2.722
					C174.849,22.914,178.72,24.197,182.596,25.48z"/>
			</g>
			<g>
				<path fill="#FAA638" d="M167.601,23.843l2.993-2.722c-0.045,0.041-0.075,0.102-0.081,0.172l-2.993,2.722
					C167.526,23.945,167.556,23.884,167.601,23.843z"/>
			</g>
			<g>
				<path fill="#FFFFFF" d="M185.357,42.664c-0.997,0.01-1.999,0.024-2.995,0.033c0.629-0.572,1.259-1.145,1.888-1.717
					c0.368-0.335,0.736-0.67,1.104-1.005c0.996-0.008,1.998-0.023,2.995-0.033C187.452,40.759,186.487,42.221,185.357,42.664z"/>
			</g>
			<g>
				<path fill="#FFFFFF" d="M182.363,42.697c-0.148,0.002-0.299-0.004-0.452-0.014c0.998-0.908,1.995-1.814,2.993-2.722
					c0.152,0.011,0.303,0.016,0.451,0.014c-0.499,0.453-0.998,0.907-1.496,1.36c-0.118,0.107-0.274,0.25-0.392,0.356
					c-0.058,0.053-0.135,0.123-0.193,0.176c-0.114,0.104-0.265,0.241-0.378,0.345c-0.108,0.098-0.253,0.229-0.361,0.328
					C182.483,42.588,182.427,42.672,182.363,42.697z"/>
			</g>
			<g>
				<path fill="#FFFFFF" d="M167.799,27.383c-0.089-0.986,0.096-2.053,0.18-3.039l2.993-2.722c-0.084,0.986-0.269,2.053-0.18,3.039
					C169.794,25.568,168.796,26.476,167.799,27.383z"/>
			</g>
			<g>
				<path fill="#FFFFFF" d="M181.911,42.684c-0.839-0.059-1.729-0.282-2.562-0.428l2.993-2.722c0.834,0.146,1.724,0.369,2.562,0.428
					C183.906,40.869,182.909,41.775,181.911,42.684z"/>
			</g>
			<g>
				<path fill="#FAA638" d="M188.665,40.423l-2.993,2.722c-0.935,0.01-1.952,0.146-2.91,0.078c-0.141-0.01-0.279-0.023-0.417-0.044
					c-1.092-0.162-2.192-0.325-3.285-0.488l2.993-2.722c1.092,0.163,2.192,0.326,3.285,0.488c0.137,0.021,0.276,0.034,0.417,0.045
					C186.714,40.568,187.73,40.433,188.665,40.423z"/>
			</g>
			<g>
				<path fill="#FFFFFF" d="M189.168,44.355c-2.054,0.632-4.347,0.869-6.811,0.696c0.998-0.907,1.996-1.814,2.993-2.722
					c2.464,0.173,4.757-0.064,6.811-0.696c-0.105,0.095-0.245,0.223-0.35,0.317c-0.577,0.525-1.155,1.051-1.732,1.575
					c-0.057,0.053-0.133,0.122-0.191,0.174c-0.183,0.166-0.366,0.333-0.548,0.499C189.288,44.246,189.229,44.32,189.168,44.355z"/>
			</g>
			<g>
				<path fill="#FFFFFF" d="M182.342,39.534l-2.993,2.722c0.922-3.813,1.838-7.62,2.761-11.426l2.993-2.722
					C184.18,31.914,183.264,35.721,182.342,39.534z"/>
			</g>
			<g>
				<path fill="#FFFFFF" d="M185.103,28.108c1.086,3.945,2.167,7.89,3.248,11.834c-0.997,0.01-1.999,0.025-2.995,0.033
					c-0.148,0.002-0.299-0.003-0.451-0.014c-0.839-0.059-1.729-0.282-2.562-0.428C183.264,35.721,184.18,31.914,185.103,28.108z"/>
			</g>
			<g>
				<path fill="#FFFFFF" d="M168.091,30.395c-0.097-1.003-0.195-2.011-0.292-3.012c0.998-0.907,1.996-1.814,2.993-2.722
					c0.097,1.001,0.195,2.009,0.292,3.012C170.186,28.489,168.989,29.578,168.091,30.395z M170.777,24.692l-0.17,0.154l-0.176,0.16
					l-0.182,0.165l-0.186,0.168l-0.189,0.172l-0.192,0.174l-0.193,0.176l-0.194,0.176l-0.194,0.177l-0.194,0.176l-0.191,0.174
					l-0.189,0.172l-0.186,0.169l-0.182,0.165l-0.176,0.16l-0.17,0.155l0.17-0.155l0.176-0.16l0.182-0.165l0.186-0.169l0.189-0.172
					l0.191-0.174l0.194-0.176l0.194-0.177l0.194-0.176l0.193-0.176l0.192-0.174l0.189-0.172l0.186-0.168l0.182-0.165l0.176-0.16
					L170.777,24.692"/>
			</g>
			<g>
				<path fill="#FFFFFF" d="M182.596,25.48l-2.993,2.722c-3.838,0.729-7.675,1.464-11.512,2.192l2.993-2.722
					C174.921,26.944,178.758,26.21,182.596,25.48z"/>
			</g>
			<g>
				<path fill="#FAA638" d="M183.584,25.319c0.142,0.051,0.191,0.15,0.188,0.245c0.007,0.096-0.04,0.189-0.158,0.215
					c-4.231,0.812-8.45,1.612-12.668,2.422c-0.022,0.004-0.045,0.005-0.065,0.003c-0.131-0.009-0.23-0.124-0.248-0.259
					c-0.098-1.077-0.378-2.278-0.313-3.343c0.064-1.1,0.129-2.209,0.193-3.309c0.012-0.133,0.107-0.234,0.233-0.225
					c0.02,0.001,0.041,0.005,0.062,0.013C175.067,22.491,179.326,23.901,183.584,25.319z M171.084,27.673
					c3.837-0.729,7.674-1.463,11.512-2.192c-3.876-1.283-7.747-2.567-11.624-3.858c-0.084,0.986-0.269,2.053-0.18,3.039
					C170.889,25.662,170.987,26.67,171.084,27.673"/>
			</g>
			<g>
				<path fill="#FFFFFF" d="M170.972,21.622c3.877,1.292,7.748,2.575,11.625,3.858c-3.838,0.729-7.675,1.464-11.512,2.192
					c-0.097-1.002-0.195-2.011-0.292-3.012C170.703,23.675,170.888,22.608,170.972,21.622z"/>
			</g>
			<g>
				<path fill="#FAA638" d="M181.915,29.685l2.993-2.722c-0.027,0.025-0.048,0.059-0.06,0.104
					c-1.007,4.201-2.024,8.392-3.032,12.583l-2.993,2.722c1.008-4.191,2.024-8.383,3.032-12.583
					C181.867,29.744,181.888,29.709,181.915,29.685z"/>
			</g>
			<g>
				<path fill="#FAA638" d="M170.633,27.946l-2.993,2.722c-0.098-1.077-0.378-2.278-0.313-3.343
					c0.065-1.101,0.129-2.209,0.193-3.309l2.993-2.722c-0.064,1.1-0.129,2.208-0.193,3.309
					C170.254,25.667,170.535,26.869,170.633,27.946z"/>
			</g>
			<g>
				<path fill="#FFFFFF" d="M165.017,27.197c-0.049-2.531,0.335-4.834,1.137-6.823c0.998-0.907,1.996-1.814,2.993-2.721
					c-0.802,1.988-1.186,4.291-1.137,6.822C167.013,25.382,166.015,26.29,165.017,27.197z"/>
			</g>
			<g>
				<path fill="#FAA638" d="M188.892,40.137c0.046,0.158-0.072,0.289-0.227,0.286c-0.935,0.01-1.951,0.146-2.909,0.079
					c-0.141-0.011-0.279-0.024-0.417-0.045c-1.092-0.162-2.192-0.325-3.285-0.488c-0.155-0.027-0.278-0.166-0.238-0.318
					c1.008-4.191,2.024-8.382,3.032-12.583c0.029-0.115,0.121-0.159,0.215-0.153c0.123,0.008,0.216,0.066,0.249,0.186
					C186.502,31.446,187.701,35.791,188.892,40.137z M185.355,39.976c0.996-0.009,1.998-0.023,2.995-0.033
					c-1.081-3.944-2.162-7.889-3.248-11.834c-0.922,3.806-1.839,7.612-2.761,11.426c0.834,0.146,1.724,0.369,2.562,0.428
					C185.057,39.973,185.208,39.978,185.355,39.976"/>
			</g>
			<g>
				<path fill="#FAA638" d="M182.055,39.969l-2.993,2.722c-0.155-0.027-0.277-0.166-0.238-0.318l2.993-2.722
					C181.777,39.803,181.9,39.941,182.055,39.969z"/>
			</g>
			<g>
				<path fill="#FAA638" d="M183.615,25.779l-2.993,2.722c-4.231,0.812-8.45,1.612-12.668,2.421
					c-0.023,0.004-0.045,0.005-0.066,0.004c-0.131-0.009-0.23-0.124-0.248-0.259l2.993-2.722c0.018,0.135,0.117,0.25,0.248,0.259
					c0.021,0.001,0.043,0,0.065-0.003C175.165,27.392,179.384,26.591,183.615,25.779z"/>
			</g>
			<g>
				<path fill="#FFFFFF" d="M177.784,37.721l-2.993,2.722c2.146-3.639,4.292-7.278,6.447-10.908l2.993-2.722
					C182.077,30.442,179.93,34.082,177.784,37.721z"/>
			</g>
			<g>
				<path fill="#FAA638" d="M177.509,37.21l-2.993,2.722c1.953-3.312,3.906-6.622,5.866-9.926l2.993-2.722
					C181.415,30.588,179.461,33.898,177.509,37.21z"/>
			</g>
			<g>
				<path fill="#FFFFFF" d="M169.649,35.08c0.998-0.907,1.996-1.814,2.993-2.721c0.014-0.012,0.03-0.023,0.048-0.033
					c3.727-1.96,7.461-3.912,11.197-5.871l-2.993,2.722c-3.735,1.959-7.47,3.911-11.197,5.871
					C169.678,35.057,169.662,35.068,169.649,35.08z"/>
			</g>
			<g>
				<path fill="#FAA638" d="M183.375,27.284l-2.993,2.722c-3.402,1.784-6.805,3.562-10.2,5.349l2.993-2.721
					C176.57,30.847,179.973,29.068,183.375,27.284z"/>
			</g>
			<g>
				<path fill="#FFFFFF" d="M177.745,37.768l-2.993,2.722c0.015-0.013,0.027-0.028,0.039-0.047l2.993-2.722
					C177.772,37.739,177.759,37.755,177.745,37.768z"/>
			</g>
			<g>
				<path fill="#FFFFFF" d="M174.516,39.932c-0.77-0.705-1.545-1.409-2.314-2.12c0.499-0.454,0.998-0.907,1.497-1.361
					c0.499-0.453,0.998-0.907,1.497-1.36c0.769,0.711,1.544,1.416,2.314,2.12C176.611,38.026,175.414,39.115,174.516,39.932z"/>
			</g>
			<g>
				<path fill="#FFFFFF" d="M172.202,37.812c-0.751-0.687-1.374-1.632-2.021-2.457l2.993-2.721c0.646,0.825,1.269,1.77,2.021,2.457
					c-0.629,0.572-1.259,1.145-1.888,1.717C172.938,37.142,172.57,37.477,172.202,37.812z"/>
			</g>
			<g>
				<path fill="#FAA638" d="M169.649,35.08c0.998-0.907,1.996-1.814,2.993-2.721c-0.094,0.085-0.081,0.231,0.004,0.343l-2.993,2.722
					C169.567,35.312,169.555,35.166,169.649,35.08z"/>
			</g>
			<g>
				<path fill="#FAA638" d="M177.745,37.768l-2.993,2.722c-0.044,0.04-0.1,0.057-0.157,0.053c-0.062-0.005-0.126-0.032-0.181-0.083
					c-0.821-0.756-1.847-1.484-2.558-2.345c-0.729-0.896-1.467-1.793-2.204-2.69l2.993-2.722c0.737,0.897,1.475,1.794,2.204,2.69
					c0.711,0.861,1.737,1.589,2.558,2.345c0.054,0.051,0.119,0.078,0.181,0.083C177.646,37.824,177.701,37.808,177.745,37.768z"/>
			</g>
			<g>
				<path fill="#FAA638" d="M184.198,26.506c0.061,0.061,0.094,0.148,0.066,0.237c-0.006,0.025-0.017,0.048-0.033,0.069
					c-2.155,3.63-4.301,7.27-6.447,10.908c-0.046,0.073-0.12,0.104-0.196,0.1c-0.062-0.005-0.126-0.032-0.181-0.083
					c-0.821-0.756-1.847-1.483-2.558-2.345c-0.729-0.896-1.467-1.793-2.204-2.69c-0.097-0.128-0.1-0.3,0.044-0.376
					c3.727-1.96,7.461-3.912,11.197-5.871c0.024-0.018,0.051-0.029,0.079-0.034c0.022-0.005,0.043-0.007,0.064-0.005
					C184.095,26.42,184.155,26.456,184.198,26.506z M177.509,37.21c1.952-3.312,3.906-6.622,5.865-9.926
					c-3.402,1.784-6.804,3.563-10.2,5.349c0.646,0.825,1.269,1.77,2.021,2.457C175.964,35.801,176.739,36.506,177.509,37.21"/>
			</g>
			<g>
				<path fill="#FFFFFF" d="M182.357,45.052c-2.464-0.172-4.773-0.73-6.866-1.653c0.998-0.906,1.996-1.813,2.993-2.721
					c2.093,0.922,4.401,1.48,6.866,1.652C184.353,43.237,183.355,44.145,182.357,45.052z"/>
			</g>
			<g>
				<path fill="#FFFFFF" d="M166.422,34.197c-0.881-2.106-1.355-4.46-1.405-7c0.998-0.907,1.996-1.814,2.993-2.722
					c0.049,2.54,0.524,4.894,1.405,7c-0.564,0.513-1.129,1.026-1.693,1.54C167.289,33.409,166.855,33.803,166.422,34.197z"/>
			</g>
			<g>
				<path fill="#FFFFFF" d="M175.491,43.398c-1.403-0.614-2.689-1.382-3.847-2.288c0.998-0.907,1.995-1.813,2.993-2.721
					c1.157,0.905,2.443,1.673,3.847,2.288C177.487,41.585,176.489,42.492,175.491,43.398z"/>
			</g>
			<g>
				<path fill="#FFFFFF" d="M171.645,41.11c-0.562-0.438-1.093-0.911-1.592-1.413c0.499-0.454,0.998-0.907,1.497-1.361
					c0.499-0.453,0.998-0.907,1.497-1.36c0.5,0.503,1.031,0.975,1.592,1.414C173.64,39.297,172.642,40.203,171.645,41.11z"/>
			</g>
			<g>
				<path fill="#FFFFFF" d="M170.052,39.697c-1.53-1.54-2.749-3.394-3.63-5.5c0.104-0.095,0.245-0.223,0.35-0.318
					c0.055-0.05,0.128-0.117,0.183-0.167c0.82-0.746,1.64-1.492,2.46-2.237c0.881,2.107,2.1,3.961,3.63,5.5
					c-0.629,0.572-1.259,1.145-1.888,1.717C170.789,39.027,170.42,39.362,170.052,39.697z"/>
			</g>
			<g>
				<path fill="#FAA638" d="M201.509,19.553c0.935,2.231,1.438,4.708,1.489,7.369c0.052,2.661-0.356,5.083-1.207,7.189
					c-0.843,2.106-2.068,3.893-3.645,5.31c-1.559,1.418-3.459,2.476-5.632,3.144c-2.165,0.659-4.569,0.905-7.145,0.725
					c-2.585-0.181-5.005-0.764-7.202-1.728c-2.206-0.975-4.143-2.301-5.77-3.941s-2.925-3.604-3.859-5.834
					c-0.935-2.231-1.429-4.716-1.48-7.377c-0.052-2.661,0.348-5.074,1.199-7.18c0.851-2.115,2.077-3.901,3.644-5.319
					c1.568-1.417,3.468-2.476,5.633-3.135c2.165-0.668,4.569-0.915,7.154-0.733c2.575,0.18,4.996,0.763,7.193,1.736
					c2.205,0.965,4.143,2.292,5.769,3.932C199.284,15.351,200.583,17.314,201.509,19.553z M200.908,33.678
					c0.802-1.989,1.177-4.283,1.128-6.823c-0.049-2.531-0.515-4.894-1.396-7c-0.881-2.107-2.1-3.952-3.63-5.5
					c-1.53-1.54-3.363-2.789-5.448-3.703c-2.084-0.922-4.392-1.472-6.856-1.645c-2.464-0.172-4.758,0.056-6.821,0.688
					c-2.054,0.624-3.835,1.621-5.31,2.95c-1.475,1.338-2.625,3.017-3.427,5.006c-0.802,1.988-1.186,4.291-1.137,6.822
					c0.049,2.54,0.524,4.894,1.405,7c0.881,2.107,2.1,3.961,3.63,5.5c1.53,1.539,3.355,2.788,5.439,3.702
					c2.093,0.922,4.401,1.48,6.866,1.652c2.464,0.173,4.757-0.064,6.811-0.696c2.055-0.624,3.845-1.62,5.319-2.95
					C198.955,37.347,200.105,35.667,200.908,33.678"/>
			</g>
			<g>
				<path fill="#FFFFFF" d="M185.163,11.269c-0.14-0.01-0.278-0.015-0.414-0.014c-0.996,0.008-1.986,0.018-2.98,0.026
					c1.073,3.946,2.139,7.892,3.211,11.837c0.933-3.806,1.871-7.606,2.802-11.413C186.928,11.557,186.015,11.329,185.163,11.269z"/>
			</g>
			<g>
				<path fill="#FAA638" d="M198.203,39.37c-0.998,0.907-1.996,1.814-2.993,2.722c-0.019,0.017-0.038,0.033-0.056,0.051l2.993-2.722
					C198.165,39.403,198.184,39.387,198.203,39.37z"/>
			</g>
			<g>
				<path fill="#FFFFFF" d="M183.375,27.284c-1.959,3.304-3.913,6.614-5.865,9.926c-0.77-0.704-1.545-1.409-2.314-2.12
					c-0.751-0.687-1.374-1.632-2.021-2.457C176.57,30.847,179.973,29.068,183.375,27.284z"/>
			</g>
			<g>
				<path fill="#FFFFFF" d="M200.64,19.855c0.881,2.106,1.347,4.468,1.396,7c0.049,2.54-0.327,4.834-1.128,6.823
					c-0.802,1.989-1.953,3.669-3.427,5.006c-1.475,1.33-3.265,2.326-5.319,2.95c-2.054,0.632-4.347,0.869-6.811,0.696
					c-2.464-0.172-4.773-0.73-6.866-1.652c-2.084-0.914-3.909-2.163-5.439-3.702c-1.531-1.539-2.75-3.393-3.63-5.5
					c-0.881-2.106-1.355-4.46-1.405-7c-0.049-2.531,0.335-4.834,1.137-6.822c0.802-1.989,1.953-3.668,3.427-5.006
					c1.475-1.329,3.256-2.326,5.31-2.95c2.063-0.632,4.357-0.86,6.821-0.688c2.464,0.172,4.772,0.722,6.856,1.645
					c2.084,0.914,3.918,2.163,5.448,3.703C198.541,15.903,199.759,17.748,200.64,19.855z M192.338,13.52
					c-2.142,3.655-4.283,7.31-6.425,10.957c-0.067,0.115-0.02,0.232,0.065,0.304c0.041,0.042,0.093,0.071,0.149,0.075
					c0.029,0.002,0.059-0.002,0.09-0.015c0.019-0.006,0.036-0.015,0.052-0.027c3.727-1.969,7.453-3.938,11.171-5.917
					c0.135-0.068,0.141-0.249,0.044-0.368c-0.729-0.888-1.466-1.776-2.195-2.672c-0.711-0.861-1.754-1.598-2.583-2.355
					c-0.051-0.049-0.114-0.078-0.176-0.082C192.453,13.415,192.379,13.446,192.338,13.52 M172.312,16.787
					c-0.101,0.114-0.088,0.287,0.059,0.384c3.804,2.496,7.617,4.992,11.42,7.496c0.025,0.021,0.052,0.036,0.081,0.045
					c0.022,0.008,0.043,0.013,0.064,0.014c0.066,0.005,0.124-0.023,0.166-0.067c0.058-0.053,0.088-0.135,0.058-0.228
					c-0.007-0.025-0.019-0.05-0.036-0.074c-2.276-3.958-4.561-7.916-6.846-11.865c-0.044-0.084-0.12-0.125-0.196-0.131
					c-0.062-0.004-0.125,0.015-0.174,0.053c-0.827,0.667-1.664,1.333-2.491,1.992C173.624,15.05,172.991,16.023,172.312,16.787
					 M197.81,34.437c0.093-0.106,0.08-0.289-0.059-0.375c-3.829-2.494-7.65-4.987-11.48-7.481c-0.041-0.027-0.082-0.04-0.119-0.042
					c-0.071-0.005-0.132,0.027-0.174,0.077c-0.054,0.052-0.08,0.13-0.049,0.218c0.007,0.026,0.019,0.051,0.036,0.075
					c2.293,3.949,4.586,7.89,6.887,11.839c0.045,0.082,0.123,0.124,0.201,0.129c0.06,0.004,0.121-0.013,0.169-0.051
					c0.827-0.667,1.646-1.325,2.465-1.984C196.489,36.198,197.122,35.207,197.81,34.437 M177.784,37.721
					c2.146-3.639,4.292-7.278,6.447-10.908c0.016-0.021,0.027-0.044,0.033-0.069c0.028-0.089-0.005-0.176-0.066-0.237
					c-0.043-0.05-0.103-0.086-0.169-0.091c-0.021-0.001-0.042,0-0.064,0.005c-0.027,0.005-0.055,0.016-0.079,0.034
					c-3.735,1.959-7.47,3.911-11.197,5.871c-0.144,0.076-0.141,0.249-0.044,0.376c0.737,0.897,1.475,1.794,2.204,2.69
					c0.711,0.861,1.737,1.589,2.558,2.345c0.054,0.051,0.119,0.078,0.181,0.083C177.665,37.825,177.738,37.794,177.784,37.721
					 M188.665,40.423c0.155,0.003,0.272-0.128,0.227-0.286c-1.19-4.346-2.389-8.691-3.579-13.037
					c-0.033-0.12-0.126-0.177-0.222-0.184c-0.122-0.008-0.213,0.036-0.242,0.151c-1.007,4.201-2.024,8.392-3.032,12.583
					c-0.04,0.152,0.083,0.291,0.238,0.318c1.092,0.163,2.192,0.326,3.285,0.488c0.137,0.021,0.276,0.034,0.417,0.045
					C186.714,40.568,187.73,40.433,188.665,40.423 M181.456,10.8c-0.154,0.007-0.263,0.128-0.226,0.295
					c1.181,4.341,2.353,8.682,3.534,13.023c0.048,0.14,0.133,0.191,0.22,0.198c0.123,0.009,0.214-0.037,0.246-0.155
					c1.025-4.19,2.05-8.381,3.083-12.57c0.031-0.153-0.083-0.291-0.237-0.319c-1.109-0.164-2.21-0.327-3.319-0.491
					c-0.149-0.023-0.3-0.039-0.453-0.049C183.365,10.666,182.371,10.797,181.456,10.8 M170.881,28.205
					c0.021,0.001,0.043,0,0.065-0.003c4.219-0.81,8.438-1.61,12.657-2.419c0.13-0.029,0.176-0.122,0.169-0.218
					c0.003-0.095-0.046-0.194-0.165-0.237c-4.282-1.427-8.54-2.836-12.799-4.246c-0.021-0.008-0.043-0.012-0.062-0.013
					c-0.126-0.009-0.221,0.092-0.233,0.225c-0.064,1.1-0.129,2.208-0.193,3.309c-0.065,1.065,0.215,2.267,0.313,3.343
					C170.65,28.081,170.75,28.195,170.881,28.205 M199.803,26.655c0.065-1.065-0.216-2.284-0.322-3.37
					c-0.01-0.137-0.119-0.248-0.249-0.257c-0.019-0.001-0.037,0-0.056,0.002c-4.219,0.827-8.439,1.645-12.659,2.462
					c-0.121,0.024-0.169,0.121-0.163,0.222c-0.002,0.1,0.049,0.204,0.172,0.245c4.262,1.394,8.534,2.797,12.796,4.19
					c0.023,0.008,0.045,0.013,0.066,0.014c0.124,0.008,0.218-0.086,0.23-0.218C199.683,28.847,199.747,27.755,199.803,26.655"/>
			</g>
			<g>
				<path fill="#FAA638" d="M198.146,39.421l-2.993,2.722c-1.559,1.418-3.459,2.476-5.633,3.144
					c-2.165,0.659-4.569,0.905-7.145,0.725c-2.584-0.181-5.005-0.764-7.202-1.728c-2.205-0.975-4.143-2.301-5.77-3.941
					c-1.626-1.641-2.925-3.604-3.859-5.835c-0.935-2.231-1.429-4.716-1.48-7.377c-0.052-2.661,0.348-5.074,1.199-7.18
					c0.851-2.115,2.077-3.901,3.644-5.319l2.993-2.721c-1.567,1.417-2.792,3.204-3.644,5.319c-0.851,2.106-1.25,4.52-1.199,7.18
					c0.051,2.661,0.545,5.146,1.48,7.377c0.935,2.231,2.233,4.194,3.859,5.834s3.564,2.967,5.77,3.941
					c2.196,0.964,4.617,1.547,7.202,1.728c2.576,0.181,4.98-0.065,7.145-0.725C194.687,41.896,196.587,40.839,198.146,39.421z"/>
			</g>
		</g>
	</g>
</g>
<g>
</g>
<g>
</g>
<g>
</g>
<g>
</g>
<g>
</g>
<g>
</g>
<g>
</g>
<g>
</g>
<g>
</g>
<g>
</g>
<g>
</g>
<g>
</g>
<g>
</g>
<g>
</g>
<g>
</g>
</svg>
