<?xml version="1.0" encoding="UTF-8" standalone="no"?>
<!DOCTYPE svg PUBLIC "-//W3C//DTD SVG 1.0//EN" "http://www.w3.org/TR/2001/REC-SVG-20010904/DTD/svg10.dtd">
<svg width="86px" height="87px" viewBox="183 245 86 87" version="1.1" xmlns="http://www.w3.org/2000/svg" xmlns:xlink="http://www.w3.org/1999/xlink">
    <!-- Generator: Sketch 42 (36781) - http://www.bohemiancoding.com/sketch -->


    <desc>Created with Sketch.</desc>
    <defs>
        <ellipse id="path-1" cx="43" cy="43.5" rx="43" ry="43.5"></ellipse>
        <mask id="mask-2" maskContentUnits="userSpaceOnUse" maskUnits="objectBoundingBox" x="0" y="0" width="86" height="87" fill="white">
            <use xlink:href="#path-1"></use>
        </mask>
    </defs>

	<g>
    <g id="Orange-Copy" stroke="none" stroke-width="1" fill="none" fill-rule="evenodd" transform="translate(183.000000, 245.000000)">

        <g id="Group-Copy">
            <use id="Oval" stroke="#FAA634" mask="url(#mask-2)" stroke-width="8" fill="#FFFAF0" xlink:href="#path-1"></use>
            <g id="Group-3" transform="translate(36.464000, 8.352000)" fill="#FAA634">
                <g id="Group-2">
                    <path d="M8.36558463,28.6496429 C8.36558463,28.6496429 11.9017332,12.3532065 13.6698074,4.20498829 C13.9147759,3.07604454 13.7898275,2.28699565 13.6698074,1.93254085 C13.5535189,1.58910647 13.2162712,0.62139991 11.7003861,0.420863468 C10.1251261,0.212472323 8.1962693,0 6.88,0 L6.88,30.972 C7.224,30.972 7.87038976,30.9317619 8.36558463,28.6496429 Z" id="Combined-Shape"></path>
                    <path d="M5.44489504,28.6496429 L0.140672255,4.20498829 C-0.104296196,3.07604454 0.0206521619,2.28699565 0.140672255,1.93254085 C0.256960785,1.58910647 0.594208457,0.62139991 2.11009357,0.420863468 C3.68535356,0.212472323 5.61421038,0 6.93047967,0 L6.93047967,30.972 C6.58647967,30.972 5.94008992,30.9317619 5.44489504,28.6496429 Z" id="Combined-Shape-Copy"></path>
                </g>
                <g id="Group-2-Copy" transform="translate(7.000000, 55.492000) scale(1, -1) translate(-7.000000, -55.492000) translate(0.000000, 39.992000)">
                    <path d="M8.36558463,28.6496429 C8.36558463,28.6496429 11.9017332,12.3532065 13.6698074,4.20498829 C13.9147759,3.07604454 13.7898275,2.28699565 13.6698074,1.93254085 C13.5535189,1.58910647 13.2162712,0.62139991 11.7003861,0.420863468 C10.1251261,0.212472323 8.1962693,0 6.88,0 L6.88,30.972 C7.224,30.972 7.87038976,30.9317619 8.36558463,28.6496429 Z" id="Combined-Shape"></path>
                    <path d="M5.44489504,28.6496429 L0.140672255,4.20498829 C-0.104296196,3.07604454 0.0206521619,2.28699565 0.140672255,1.93254085 C0.256960785,1.58910647 0.594208457,0.62139991 2.11009357,0.420863468 C3.68535356,0.212472323 5.61421038,0 6.93047967,0 L6.93047967,30.972 C6.58647967,30.972 5.94008992,30.9317619 5.44489504,28.6496429 Z" id="Combined-Shape-Copy"></path>
                </g>
            </g>
            <g id="Group-3" transform="translate(43.526780, 43.692437) rotate(45.000000) translate(-43.526780, -43.692437) translate(36.526780, 8.192437)" fill="#FAA634">
                <g id="Group-2" transform="translate(0.000000, -0.000000)">
                    <path d="M8.36558463,28.6496429 C8.36558463,28.6496429 11.9017332,12.3532065 13.6698074,4.20498829 C13.9147759,3.07604454 13.7898275,2.28699565 13.6698074,1.93254085 C13.5535189,1.58910647 13.2162712,0.62139991 11.7003861,0.420863468 C10.1251261,0.212472323 8.1962693,9.23705556e-14 6.88,9.23705556e-14 L6.88,30.972 C7.224,30.972 7.87038976,30.9317619 8.36558463,28.6496429 Z" id="Combined-Shape"></path>
                    <path d="M5.44489504,28.6496429 L0.140672255,4.20498829 C-0.104296196,3.07604454 0.0206521619,2.28699565 0.140672255,1.93254085 C0.256960785,1.58910647 0.594208457,0.62139991 2.11009357,0.420863468 C3.68535356,0.212472323 5.61421038,1.42108547e-14 6.93047967,1.42108547e-14 L6.93047967,30.972 C6.58647967,30.972 5.94008992,30.9317619 5.44489504,28.6496429 Z" id="Combined-Shape-Copy"></path>
                </g>
                <g id="Group-2-Copy" transform="translate(7.000000, 55.492000) scale(1, -1) translate(-7.000000, -55.492000) translate(0.000000, 39.992000)">
                    <path d="M8.36558463,28.6496429 C8.36558463,28.6496429 11.9017332,12.3532065 13.6698074,4.20498829 C13.9147759,3.07604454 13.7898275,2.28699565 13.6698074,1.93254085 C13.5535189,1.58910647 13.2162712,0.62139991 11.7003861,0.420863468 C10.1251261,0.212472323 8.1962693,4.26325641e-14 6.88,4.26325641e-14 L6.88,30.972 C7.224,30.972 7.87038976,30.9317619 8.36558463,28.6496429 Z" id="Combined-Shape"></path>
                    <path d="M5.44489504,28.6496429 L0.140672255,4.20498829 C-0.104296196,3.07604454 0.0206521619,2.28699565 0.140672255,1.93254085 C0.256960785,1.58910647 0.594208457,0.62139991 2.11009357,0.420863468 C3.68535356,0.212472323 5.61421038,-4.26325641e-14 6.93047967,-4.26325641e-14 L6.93047967,30.972 C6.58647967,30.972 5.94008992,30.9317619 5.44489504,28.6496429 Z" id="Combined-Shape-Copy"></path>
                </g>
            </g>
        </g>
        <g id="Group-3" transform="translate(43.684000, 43.624000) rotate(90.000000) translate(-43.684000, -43.624000) translate(36.684000, 8.124000)" fill="#FAA634">
            <g id="Group-2">
                <path d="M8.36558463,28.6496429 C8.36558463,28.6496429 11.9017332,12.3532065 13.6698074,4.20498829 C13.9147759,3.07604454 13.7898275,2.28699565 13.6698074,1.93254085 C13.5535189,1.58910647 13.2162712,0.62139991 11.7003861,0.420863468 C10.1251261,0.212472323 8.1962693,-2.84217094e-14 6.88,-2.84217094e-14 L6.88,30.972 C7.224,30.972 7.87038976,30.9317619 8.36558463,28.6496429 Z" id="Combined-Shape"></path>
                <path d="M5.44489504,28.6496429 L0.140672255,4.20498829 C-0.104296196,3.07604454 0.0206521619,2.28699565 0.140672255,1.93254085 C0.256960785,1.58910647 0.594208457,0.62139991 2.11009357,0.420863468 C3.68535356,0.212472323 5.61421038,0 6.93047967,0 L6.93047967,30.972 C6.58647967,30.972 5.94008992,30.9317619 5.44489504,28.6496429 Z" id="Combined-Shape-Copy"></path>
            </g>
            <g id="Group-2-Copy" transform="translate(7.000000, 55.492000) scale(1, -1) translate(-7.000000, -55.492000) translate(-0.000000, 39.992000)">
                <path d="M8.36558463,28.6496429 C8.36558463,28.6496429 11.9017332,12.3532065 13.6698074,4.20498829 C13.9147759,3.07604454 13.7898275,2.28699565 13.6698074,1.93254085 C13.5535189,1.58910647 13.2162712,0.62139991 11.7003861,0.420863468 C10.1251261,0.212472323 8.1962693,-5.68434189e-14 6.88,-5.68434189e-14 L6.88,30.972 C7.224,30.972 7.87038976,30.9317619 8.36558463,28.6496429 Z" id="Combined-Shape"></path>
                <path d="M5.44489504,28.6496429 L0.140672255,4.20498829 C-0.104296196,3.07604454 0.0206521619,2.28699565 0.140672255,1.93254085 C0.256960785,1.58910647 0.594208457,0.62139991 2.11009357,0.420863468 C3.68535356,0.212472323 5.61421038,0 6.93047967,0 L6.93047967,30.972 C6.58647967,30.972 5.94008992,30.9317619 5.44489504,28.6496429 Z" id="Combined-Shape-Copy"></path>
            </g>
        </g>
        <g id="Group-3" transform="translate(43.843563, 43.686780) rotate(135.000000) translate(-43.843563, -43.686780) translate(36.843563, 8.186780)" fill="#FAA634">
            <g id="Group-2" transform="translate(-0.000000, -0.000000)">
                <path d="M8.36558463,28.6496429 C8.36558463,28.6496429 11.9017332,12.3532065 13.6698074,4.20498829 C13.9147759,3.07604454 13.7898275,2.28699565 13.6698074,1.93254085 C13.5535189,1.58910647 13.2162712,0.62139991 11.7003861,0.420863468 C10.1251261,0.212472323 8.1962693,7.10542736e-14 6.88,7.10542736e-14 L6.88,30.972 C7.224,30.972 7.87038976,30.9317619 8.36558463,28.6496429 Z" id="Combined-Shape"></path>
                <path d="M5.44489504,28.6496429 L0.140672255,4.20498829 C-0.104296196,3.07604454 0.0206521619,2.28699565 0.140672255,1.93254085 C0.256960785,1.58910647 0.594208457,0.62139991 2.11009357,0.420863468 C3.68535356,0.212472323 5.61421038,0 6.93047967,0 L6.93047967,30.972 C6.58647967,30.972 5.94008992,30.9317619 5.44489504,28.6496429 Z" id="Combined-Shape-Copy"></path>
            </g>
            <g id="Group-2-Copy" transform="translate(7.000000, 55.492000) scale(1, -1) translate(-7.000000, -55.492000) translate(-0.000000, 39.992000)">
                <path d="M8.36558463,28.6496429 C8.36558463,28.6496429 11.9017332,12.3532065 13.6698074,4.20498829 C13.9147759,3.07604454 13.7898275,2.28699565 13.6698074,1.93254085 C13.5535189,1.58910647 13.2162712,0.62139991 11.7003861,0.420863468 C10.1251261,0.212472323 8.1962693,7.10542736e-14 6.88,7.10542736e-14 L6.88,30.972 C7.224,30.972 7.87038976,30.9317619 8.36558463,28.6496429 Z" id="Combined-Shape"></path>
                <path d="M5.44489504,28.6496429 L0.140672255,4.20498829 C-0.104296196,3.07604454 0.0206521619,2.28699565 0.140672255,1.93254085 C0.256960785,1.58910647 0.594208457,0.62139991 2.11009357,0.420863468 C3.68535356,0.212472323 5.61421038,0 6.93047967,0 L6.93047967,30.972 C6.58647967,30.972 5.94008992,30.9317619 5.44489504,28.6496429 Z" id="Combined-Shape-Copy"></path>
            </g>
        </g>
        <ellipse id="Oval-2" fill="#FFFAF0" cx="60.544" cy="54.984" rx="3.44" ry="3.48"></ellipse>
		</g>
		<animateTransform attributeName="transform"
                          attributeType="XML"
                          type="rotate"
						  additive="sum"
                          from="0 226 288.5"
                          to="360 226 288.5"
                          dur="4s"
                          repeatCount="indefinite"/>
		</g>

</svg>
