<svg width="24px" height="9px" viewBox="0 0 24 9" version="1.1" xmlns="http://www.w3.org/2000/svg" xmlns:xlink="http://www.w3.org/1999/xlink">
    <defs></defs>
    <g id="Register" stroke="none" stroke-width="1" fill="none" fill-rule="evenodd">
        <g id="Desktop-HD-Copy-6" transform="translate(-656.000000, -208.000000)" fill="#FAA634">
            <path d="M677.404049,209.018071 L673.82051,212.601611 C672.830787,213.591334 671.226347,213.591334 670.236624,212.601611 L671.596842,211.241392 C672.159524,211.389868 672.781873,211.250759 673.223138,210.809841 L675.61228,208.420699 C676.271748,207.760884 676.271748,206.691026 675.61228,206.031904 L674.417535,204.83716 C673.75772,204.177345 672.688209,204.177345 672.028394,204.83716 L669.639252,207.226302 C669.198334,207.667219 669.059225,208.289916 669.207701,208.85225 L667.847482,210.212469 C666.858106,209.222746 666.858106,207.618652 667.847482,206.628929 L671.431368,203.04539 C672.420744,202.056014 674.025185,202.056014 675.014908,203.04539 L677.404049,205.434185 C678.393772,206.424255 678.393772,208.028348 677.404049,209.018071 Z M664.861315,215.588125 C664.531407,215.258217 664.531407,214.723288 664.861315,214.39338 L670.236624,209.018071 C670.566532,208.688164 671.101461,208.688164 671.431368,209.018071 C671.760929,209.347979 671.760929,209.882908 671.431368,210.212469 L666.055712,215.588125 C665.725805,215.918032 665.190876,215.918032 664.861315,215.588125 Z M663.069545,213.796008 L660.680403,216.185497 C660.020588,216.844965 660.020588,217.914823 660.680403,218.574292 L661.874801,219.769036 C662.534616,220.428505 663.604127,220.428505 664.263943,219.769036 L666.653085,217.379894 C667.094002,216.938977 667.233111,216.315934 667.084636,215.753599 L668.444854,214.39338 C669.434577,215.383103 669.434577,216.987544 668.444854,217.97692 L664.861315,221.560806 C663.871592,222.550182 662.267152,222.550182 661.277429,221.560806 L658.888634,219.171664 C657.898911,218.181941 657.898911,216.577501 658.888634,215.588125 L662.472173,212.004238 C663.461896,211.014862 665.065989,211.014862 666.055712,212.004238 L664.695494,213.364804 C664.133159,213.215981 663.510463,213.355437 663.069545,213.796008 Z" id="Page-1" transform="translate(668.146342, 212.303098) rotate(45.000000) translate(-668.146342, -212.303098) "></path>
        </g>
    </g>
</svg>
