
<svg width="12px" height="12px" viewBox="0 0 12 12" version="1.1" xmlns="http://www.w3.org/2000/svg" xmlns:xlink="http://www.w3.org/1999/xlink">
    <!-- Generator: Sketch 43 (38999) - http://www.bohemiancoding.com/sketch -->
    <desc>Created with Sketch.</desc>
    <defs></defs>
    <g id="Home-page" stroke="none" stroke-width="1" fill="none" fill-rule="evenodd">
        <g id="Desktop-HD-Copy" transform="translate(-317.000000, -695.000000)" fill="#4A4A4A">
            <g id="Group-6-Copy" transform="translate(82.000000, 473.000000)">
                <g id="Group" transform="translate(0.000000, 53.000000)">
                    <g id="Group-4">
                        <g id="Group-7-Copy" transform="translate(235.000000, 10.000000)">
                            <path d="M6,171 C2.68630435,171 0,168.313696 0,164.999783 C0,161.686304 2.68630435,159 6,159 C9.31369565,159 12,161.686304 12,164.999783 C12,168.313696 9.31369565,171 6,171 Z M6,160.565217 C3.55065217,160.565217 1.56521739,162.550652 1.56521739,164.999783 C1.56521739,167.44913 3.55065217,169.434783 6,169.434783 C8.44934783,169.434783 10.4347826,167.44913 10.4347826,164.999783 C10.4347826,162.550652 8.44934783,160.565217 6,160.565217 Z M8.60869565,165.782609 L6,165.782609 C5.56782609,165.782609 5.2173913,165.432391 5.2173913,164.999783 L5.2173913,162.391304 C5.2173913,161.95913 5.56782609,161.608696 6,161.608696 C6.43217391,161.608696 6.7826087,161.95913 6.7826087,162.391304 L6.7826087,164.217391 L8.60869565,164.217391 C9.04086957,164.217391 9.39130435,164.567826 9.39130435,164.999783 C9.39130435,165.432391 9.04086957,165.782609 8.60869565,165.782609 Z" id="Page-1"></path>
                        </g>
                    </g>
                </g>
            </g>
        </g>
    </g>
</svg>
