
<svg width="21px" height="21px" viewBox="0 0 21 21" version="1.1" xmlns="http://www.w3.org/2000/svg" xmlns:xlink="http://www.w3.org/1999/xlink">
    <!-- Generator: Sketch 43.1 (39012) - http://www.bohemiancoding.com/sketch -->
    <desc>Created with Sketch.</desc>
    <defs></defs>
    <g id="Welcome" stroke="none" stroke-width="1" fill="none" fill-rule="evenodd">
        <g id="Home---Problem-2-Copy" transform="translate(-868.000000, -441.000000)" fill="#FAA634">
            <g id="Form-/-Textarea-(Focus)" transform="translate(176.000000, 424.000000)">
                <path d="M702.04241,24.0439475 L695.579743,17.5812806 C694.8054,16.8069369 693.539162,16.804591 692.759617,17.5841359 L692.584007,17.7597453 C691.80844,18.5353122 691.803184,19.8019041 692.581152,20.5798721 L699.043819,27.042539 L692.581152,33.5052059 C691.803184,34.2831739 691.80844,35.5497657 692.584007,36.3253327 L692.759617,36.500942 C693.539162,37.280487 694.8054,37.2781411 695.579743,36.5037973 L702.04241,30.0411305 L708.505077,36.5037973 C709.279421,37.2781411 710.545659,37.280487 711.325204,36.500942 L711.500813,36.3253327 C712.27638,35.5497657 712.281637,34.2831739 711.503669,33.5052059 L705.041002,27.042539 L711.503669,20.5798721 C712.281637,19.8019041 712.27638,18.5353122 711.500813,17.7597453 L711.325204,17.5841359 C710.545659,16.804591 709.279421,16.8069369 708.505077,17.5812806 L702.04241,24.0439475 Z" id="Combined-Shape"></path>
            </g>
        </g>
    </g>
</svg>
