
<svg width="10px" height="12px" viewBox="0 0 10 12" version="1.1" xmlns="http://www.w3.org/2000/svg" xmlns:xlink="http://www.w3.org/1999/xlink">
    <!-- Generator: Sketch 43.1 (39012) - http://www.bohemiancoding.com/sketch -->
    <desc>Created with Sketch.</desc>
    <defs></defs>
    <g id="Register" stroke="none" stroke-width="1" fill="none" fill-rule="evenodd">
        <g id="Desktop-HD" transform="translate(-325.000000, -277.000000)" fill="#FAA634">
            <path d="M334.25,289 L325.75,289 C325.335833,289 325,288.664375 325,288.25 L325,282.25 C325,281.835833 325.335833,281.5 325.75,281.5 L327,281.5 L327,280.000208 C327,278.343125 328.343125,277 330,277 C331.656875,277 333,278.343125 333,280.000208 L333,281.5 L334.25,281.5 C334.664167,281.5 335,281.835833 335,282.25 L335,288.25 C335,288.664375 334.664167,289 334.25,289 Z M331.582936,279.948032 C331.582936,279.07379 330.874242,278.364931 330,278.364931 C329.125758,278.364931 328.417064,279.07379 328.417064,279.948032 L328.417064,281.135069 L331.582936,281.135069 L331.582936,279.948032 Z" id="Page-1"></path>
        </g>
    </g>
</svg>
