
<svg width="12px" height="12px" viewBox="0 0 12 12" version="1.1" xmlns="http://www.w3.org/2000/svg" xmlns:xlink="http://www.w3.org/1999/xlink">
    <!-- Generator: Sketch 43 (38999) - http://www.bohemiancoding.com/sketch -->
    <desc>Created with Sketch.</desc>
    <defs></defs>
    <g id="Home-page" stroke="none" stroke-width="1" fill="none" fill-rule="evenodd">
        <g id="Desktop-HD-Copy" transform="translate(-401.000000, -694.000000)" fill="#4A4A4A">
            <g id="Group-6-Copy" transform="translate(82.000000, 473.000000)">
                <g id="Group" transform="translate(0.000000, 53.000000)">
                    <g id="Group-4">
                        <g id="Group-7-Copy" transform="translate(235.000000, 10.000000)">
                            <path d="M94.001875,169.807708 C93.093125,169.958958 92.0245833,169.999375 90,169.999375 C87.975625,169.999375 86.906875,169.958958 85.998125,169.807708 C84.725625,169.595833 84,169.141875 84,168.379583 C84,167.3725 85.2960417,165.967917 87.0979167,165.155 C87.8260417,166.259167 88.854375,166.999792 90,166.999792 C91.145625,166.999792 92.1739583,166.259167 92.9022917,165.155 C94.7039583,165.967917 96,167.3725 96,168.379583 C96,169.141875 95.2745833,169.595833 94.001875,169.807708 Z M90,165.999583 C88.3391667,165.999583 87,163.794792 87,161.529375 C87,159.42 88.2525,158 90,158 C91.7477083,158 93.0002083,159.42 93.0002083,161.529375 C93.0002083,163.794792 91.6608333,165.999583 90,165.999583 Z" id="Page-1"></path>
                        </g>
                    </g>
                </g>
            </g>
        </g>
    </g>
</svg>
