
<svg width="32px" height="32px" viewBox="0 0 32 32" version="1.1" xmlns="http://www.w3.org/2000/svg" xmlns:xlink="http://www.w3.org/1999/xlink">
    <!-- Generator: Sketch 43 (38999) - http://www.bohemiancoding.com/sketch -->
    <desc>Created with Sketch.</desc>
    <defs>
        <circle id="path-1" cx="16" cy="16" r="16"></circle>
    </defs>
    <g id="Register" stroke="none" stroke-width="1" fill="none" fill-rule="evenodd">
        <g id="Desktop-HD" transform="translate(-591.000000, -403.000000)">
            <g id="Orange-Copy-3" transform="translate(591.000000, 403.000000)">
                <g id="Group-Copy">
                    <g id="Oval">
                        <use fill="#FFFAF0" fill-rule="evenodd" xlink:href="#path-1"></use>
                        <circle stroke="#FAA634" stroke-width="1" cx="16" cy="16" r="15.5"></circle>
                    </g>
                    <g id="Group-3" transform="translate(13.568000, 3.072000)" fill="#FAA634">
                        <g id="Group-2">
                            <path d="M3.11277568,10.5377997 C3.11277568,10.5377997 4.42855187,4.54370814 5.08643997,1.54666236 C5.17759102,1.13141868 5.13109861,0.841193801 5.08643997,0.710819625 C5.04316982,0.584498931 4.91768231,0.228560886 4.35363204,0.154800356 C3.76748879,0.0781507396 3.04977462,0 2.56,0 L2.56,11.392 C2.688,11.392 2.92851712,11.3771998 3.11277568,10.5377997 Z" id="Combined-Shape"></path>
                            <path d="M2.02600746,10.5377997 L0.0523431647,1.54666236 C-0.0388078869,1.13141868 0.00768452537,0.841193801 0.0523431647,0.710819625 C0.0956133154,0.584498931 0.221100821,0.228560886 0.785151097,0.154800356 C1.37129435,0.0781507396 2.08900851,0 2.57878313,0 L2.57878313,11.392 C2.45078313,11.392 2.21026602,11.3771998 2.02600746,10.5377997 Z" id="Combined-Shape-Copy"></path>
                        </g>
                        <g id="Group-2-Copy" transform="translate(3.000000, 20.112000) scale(1, -1) translate(-3.000000, -20.112000) translate(0.000000, 14.112000)">
                            <path d="M3.11277568,10.5377997 C3.11277568,10.5377997 4.42855187,4.54370814 5.08643997,1.54666236 C5.17759102,1.13141868 5.13109861,0.841193801 5.08643997,0.710819625 C5.04316982,0.584498931 4.91768231,0.228560886 4.35363204,0.154800356 C3.76748879,0.0781507396 3.04977462,7.01660952e-14 2.56,7.01660952e-14 L2.56,11.392 C2.688,11.392 2.92851712,11.3771998 3.11277568,10.5377997 Z" id="Combined-Shape"></path>
                            <path d="M2.02600746,10.5377997 L0.0523431647,1.54666236 C-0.0388078869,1.13141868 0.00768452537,0.841193801 0.0523431647,0.710819625 C0.0956133154,0.584498931 0.221100821,0.228560886 0.785151097,0.154800356 C1.37129435,0.0781507396 2.08900851,0 2.57878313,0 L2.57878313,11.392 C2.45078313,11.392 2.21026602,11.3771998 2.02600746,10.5377997 Z" id="Combined-Shape-Copy"></path>
                        </g>
                    </g>
                    <g id="Group-3" transform="translate(16.162662, 16.662573) rotate(45.000000) translate(-16.162662, -16.662573) translate(13.162662, 3.162573)" fill="#FAA634">
                        <g id="Group-2" transform="translate(0.000000, 0.000000)">
                            <path d="M3.11277568,10.5377997 C3.11277568,10.5377997 4.42855187,4.54370814 5.08643997,1.54666236 C5.17759102,1.13141868 5.13109861,0.841193801 5.08643997,0.710819625 C5.04316982,0.584498931 4.91768231,0.228560886 4.35363204,0.154800356 C3.76748879,0.0781507396 3.04977462,-2.22044605e-13 2.56,-2.22044605e-13 L2.56,11.392 C2.688,11.392 2.92851712,11.3771998 3.11277568,10.5377997 Z" id="Combined-Shape"></path>
                            <path d="M2.02600746,10.5377997 L0.0523431647,1.54666236 C-0.0388078869,1.13141868 0.00768452537,0.841193801 0.0523431647,0.710819625 C0.0956133154,0.584498931 0.221100821,0.228560886 0.785151097,0.154800356 C1.37129435,0.0781507396 2.08900851,-8.17124146e-14 2.57878313,-8.17124146e-14 L2.57878313,11.392 C2.45078313,11.392 2.21026602,11.3771998 2.02600746,10.5377997 Z" id="Combined-Shape-Copy"></path>
                        </g>
                        <g id="Group-2-Copy" transform="translate(3.000000, 20.112000) scale(1, -1) translate(-3.000000, -20.112000) translate(-0.000000, 14.112000)">
                            <path d="M3.11277568,10.5377997 C3.11277568,10.5377997 4.42855187,4.54370814 5.08643997,1.54666236 C5.17759102,1.13141868 5.13109861,0.841193801 5.08643997,0.710819625 C5.04316982,0.584498931 4.91768231,0.228560886 4.35363204,0.154800356 C3.76748879,0.0781507396 3.04977462,8.52651283e-14 2.56,8.52651283e-14 L2.56,11.392 C2.688,11.392 2.92851712,11.3771998 3.11277568,10.5377997 Z" id="Combined-Shape"></path>
                            <path d="M2.02600746,10.5377997 L0.0523431647,1.54666236 C-0.0388078869,1.13141868 0.00768452537,0.841193801 0.0523431647,0.710819625 C0.0956133154,0.584498931 0.221100821,0.228560886 0.785151097,0.154800356 C1.37129435,0.0781507396 2.08900851,6.21724894e-14 2.57878313,6.21724894e-14 L2.57878313,11.392 C2.45078313,11.392 2.21026602,11.3771998 2.02600746,10.5377997 Z" id="Combined-Shape-Copy"></path>
                        </g>
                    </g>
                </g>
                <g id="Group-3" transform="translate(15.812000, 16.440000) rotate(90.000000) translate(-15.812000, -16.440000) translate(12.812000, 2.940000)" fill="#FAA634">
                    <g id="Group-2">
                        <path d="M3.11277568,10.5377997 C3.11277568,10.5377997 4.42855187,4.54370814 5.08643997,1.54666236 C5.17759102,1.13141868 5.13109861,0.841193801 5.08643997,0.710819625 C5.04316982,0.584498931 4.91768231,0.228560886 4.35363204,0.154800356 C3.76748879,0.0781507396 3.04977462,-4.4408921e-14 2.56,-4.4408921e-14 L2.56,11.392 C2.688,11.392 2.92851712,11.3771998 3.11277568,10.5377997 Z" id="Combined-Shape"></path>
                        <path d="M2.02600746,10.5377997 L0.0523431647,1.54666236 C-0.0388078869,1.13141868 0.00768452537,0.841193801 0.0523431647,0.710819625 C0.0956133154,0.584498931 0.221100821,0.228560886 0.785151097,0.154800356 C1.37129435,0.0781507396 2.08900851,0 2.57878313,0 L2.57878313,11.392 C2.45078313,11.392 2.21026602,11.3771998 2.02600746,10.5377997 Z" id="Combined-Shape-Copy"></path>
                    </g>
                    <g id="Group-2-Copy" transform="translate(3.000000, 20.112000) scale(1, -1) translate(-3.000000, -20.112000) translate(0.000000, 14.112000)">
                        <path d="M3.11277568,10.5377997 C3.11277568,10.5377997 4.42855187,4.54370814 5.08643997,1.54666236 C5.17759102,1.13141868 5.13109861,0.841193801 5.08643997,0.710819625 C5.04316982,0.584498931 4.91768231,0.228560886 4.35363204,0.154800356 C3.76748879,0.0781507396 3.04977462,1.50990331e-14 2.56,1.50990331e-14 L2.56,11.392 C2.688,11.392 2.92851712,11.3771998 3.11277568,10.5377997 Z" id="Combined-Shape"></path>
                        <path d="M2.02600746,10.5377997 L0.0523431647,1.54666236 C-0.0388078869,1.13141868 0.00768452537,0.841193801 0.0523431647,0.710819625 C0.0956133154,0.584498931 0.221100821,0.228560886 0.785151097,0.154800356 C1.37129435,0.0781507396 2.08900851,0 2.57878313,0 L2.57878313,11.392 C2.45078313,11.392 2.21026602,11.3771998 2.02600746,10.5377997 Z" id="Combined-Shape-Copy"></path>
                    </g>
                </g>
                <g id="Group-3" transform="translate(15.721427, 16.034662) rotate(135.000000) translate(-15.721427, -16.034662) translate(12.721427, 2.534662)" fill="#FAA634">
                    <g id="Group-2" transform="translate(-0.000000, -0.000000)">
                        <path d="M3.11277568,10.5377997 C3.11277568,10.5377997 4.42855187,4.54370814 5.08643997,1.54666236 C5.17759102,1.13141868 5.13109861,0.841193801 5.08643997,0.710819625 C5.04316982,0.584498931 4.91768231,0.228560886 4.35363204,0.154800356 C3.76748879,0.0781507396 3.04977462,6.30606678e-14 2.56,6.30606678e-14 L2.56,11.392 C2.688,11.392 2.92851712,11.3771998 3.11277568,10.5377997 Z" id="Combined-Shape"></path>
                        <path d="M2.02600746,10.5377997 L0.0523431647,1.54666236 C-0.0388078869,1.13141868 0.00768452537,0.841193801 0.0523431647,0.710819625 C0.0956133154,0.584498931 0.221100821,0.228560886 0.785151097,0.154800356 C1.37129435,0.0781507396 2.08900851,0 2.57878313,0 L2.57878313,11.392 C2.45078313,11.392 2.21026602,11.3771998 2.02600746,10.5377997 Z" id="Combined-Shape-Copy"></path>
                    </g>
                    <g id="Group-2-Copy" transform="translate(3.000000, 20.112000) scale(1, -1) translate(-3.000000, -20.112000) translate(0.000000, 14.112000)">
                        <path d="M3.11277568,10.5377997 C3.11277568,10.5377997 4.42855187,4.54370814 5.08643997,1.54666236 C5.17759102,1.13141868 5.13109861,0.841193801 5.08643997,0.710819625 C5.04316982,0.584498931 4.91768231,0.228560886 4.35363204,0.154800356 C3.76748879,0.0781507396 3.04977462,8.52651283e-14 2.56,8.52651283e-14 L2.56,11.392 C2.688,11.392 2.92851712,11.3771998 3.11277568,10.5377997 Z" id="Combined-Shape"></path>
                        <path d="M2.02600746,10.5377997 L0.0523431647,1.54666236 C-0.0388078869,1.13141868 0.00768452537,0.841193801 0.0523431647,0.710819625 C0.0956133154,0.584498931 0.221100821,0.228560886 0.785151097,0.154800356 C1.37129435,0.0781507396 2.08900851,2.13162821e-14 2.57878313,2.13162821e-14 L2.57878313,11.392 C2.45078313,11.392 2.21026602,11.3771998 2.02600746,10.5377997 Z" id="Combined-Shape-Copy"></path>
                    </g>
                </g>
                <circle id="Oval-2" fill="#FFFFFF" cx="22.528" cy="20.224" r="1.28"></circle>
            </g>
        </g>
    </g>
</svg>
